<svg width="255" height="233" viewBox="0 0 255 233" fill="none" xmlns="http://www.w3.org/2000/svg">
<path d="M146.569 0C149.405 1.5026 151.094 3.86027 153.042 6.29651C157.636 11.7894 162.556 16.2097 168.42 20.436C168.94 20.8111 169.459 21.1862 169.994 21.5726C177.641 27.0657 185.015 31.8745 193.843 35.4593C196.388 36.5965 198.917 37.7691 201.447 38.939C202.82 39.5688 204.194 40.1982 205.568 40.8272C207.609 41.7623 209.648 42.7018 211.682 43.651C221.608 48.1581 231.892 50.2382 242.701 51.5872C243.861 51.7399 245.02 51.8925 246.214 52.0498C249.033 52.4197 251.853 52.7809 254.675 53.1337C254.195 56.7327 253.454 59.443 251.607 62.5923C251.153 63.3737 250.698 64.1551 250.23 64.9602C249.73 65.7964 249.231 66.6326 248.717 67.4942C248.194 68.3811 247.671 69.268 247.133 70.1818C239.613 82.846 231.627 95.2363 223.645 107.628C223.034 108.578 222.422 109.528 221.792 110.507C220.637 112.298 219.48 114.088 218.32 115.876C215.138 120.802 212.115 125.779 209.278 130.901C210.559 130.71 210.559 130.71 211.867 130.515C212.997 130.35 214.128 130.186 215.293 130.017C216.409 129.853 217.526 129.689 218.676 129.52C221.641 129.174 224.456 129.062 227.437 129.134C230.863 140.466 231.83 151.646 232.526 163.412C232.643 165.242 232.762 167.072 232.884 168.901C232.92 169.544 232.956 170.187 232.994 170.85C233.36 174.851 234.888 176.87 237.708 179.727C238.416 180.46 239.124 181.194 239.853 181.95C241.687 183.666 243.519 185.151 245.595 186.576C244.808 190.665 242.257 192.863 239.353 195.744C234.243 200.944 229.6 206.354 225.11 212.065C224.38 212.986 223.649 213.906 222.897 214.855C222.508 215.355 222.119 215.856 221.718 216.371C218.717 220.094 218.717 220.094 215.179 220.709C211.998 220.471 209.226 219.604 206.213 218.61C196.365 215.438 185.925 214.466 175.684 213.087C175.04 212.99 174.395 212.892 173.732 212.792C168.203 211.999 163.317 212.203 157.525 212.203C153.929 218.911 150.334 225.618 146.63 232.529C125.448 232.894 125.448 232.894 115.461 229.836C111.362 228.801 107.545 228.739 103.332 228.663C95.9925 228.411 89.8757 227.405 83.0734 224.576C81.6443 224.036 81.6443 224.036 80.1864 223.485C70.3131 219.678 65.0294 215.058 58.5589 206.901C57.7618 205.939 57.7618 205.939 56.9487 204.958C55.835 203.366 55.835 203.366 55.8918 201.323C56.743 198.948 56.743 198.948 58.4667 196.124C60.3725 192.919 61.6225 189.621 62.7014 186.078C62.8912 185.459 63.081 184.84 63.2766 184.203C63.8353 182.346 64.376 180.485 64.9145 178.622C65.2094 177.647 65.5044 176.672 65.8083 175.667C68.8071 164.322 70.5374 149.607 64.9145 138.855C62.4183 134.768 59.7383 131.758 55.8812 128.871C51.3714 125.226 47.6092 120.342 44.9397 115.27C39.8482 107.063 31.591 103.768 22.6631 100.599C14.6807 97.6244 10.6823 94.4136 5.89809 87.5988C5.21517 86.9478 5.21517 86.9478 4.51844 86.2836C0.943634 82.7307 0.0590479 79.6418 0.0531999 74.7296C0.0356439 73.7443 0.018088 72.7589 0 71.7436C0.555782 68.4085 1.46288 67.655 4.0822 65.5058C14.1583 60.8931 28.3146 55.889 39.492 58.436C43.9448 60.1899 48.007 62.344 52.2033 64.6221C55.4701 65.9904 58.8174 67.0625 62.1907 68.157C62.1907 64.9491 62.1907 61.7412 62.1907 58.436C61.5914 58.436 60.9922 58.436 60.3748 58.436C60.3081 57.3493 60.3081 57.3493 60.24 56.2405C60.1382 54.812 60.1382 54.812 60.0343 53.3546C59.9395 51.9398 59.9395 51.9398 59.8428 50.4964C59.485 47.9603 58.8347 46.526 57.6509 44.2965C57.6509 43.13 57.6509 41.9635 57.6509 40.7616C58.8158 40.777 58.8158 40.777 60.0041 40.7927C81.2955 41.0959 81.2955 41.0959 100.324 32.8081C101.883 31.8341 103.445 30.8644 105.009 29.8981C114.076 24.2245 122.807 18.1857 131.194 11.5988C132.583 10.5172 132.583 10.5172 134 9.4137C138.756 5.74377 138.756 5.74377 143.051 1.59484C144.814 0.110465 144.814 0.110465 146.569 0Z" fill="white"/>
<path d="M145.831 15.3607C148.031 16.2074 149.074 17.3487 150.658 19.0553C157.605 26.0689 165.784 32.0461 174.776 36.3431C174.776 36.9263 174.776 37.5096 174.776 38.1105C175.394 38.3292 176.012 38.5479 176.648 38.7733C179.241 39.847 181.598 41.1441 184.025 42.5291C185.869 43.5544 185.869 43.5543 188.735 44.6832C191.983 46.0458 194.962 47.6214 198.013 49.3503C203.518 52.203 209.223 54.0577 215.179 55.7849C215.968 56.0152 216.758 56.2454 217.571 56.4827C224.425 58.4385 231.295 59.9042 238.332 61.0872C238.956 62.689 238.956 62.689 239.24 64.6221C238.346 65.5191 237.435 66.4001 236.516 67.2733C235.581 68.6704 234.689 70.095 233.828 71.5365C233.324 72.3733 232.821 73.21 232.303 74.0721C231.783 74.9452 231.263 75.8184 230.728 76.718C227.593 81.9524 224.459 87.1757 221.134 92.2982C220.35 93.5109 219.588 94.7369 218.832 95.9666C216.801 99.2511 214.679 102.478 212.569 105.715C208.559 111.879 204.589 118.065 200.652 124.273C196.504 130.813 192.316 137.327 188.09 143.82C183.173 151.381 178.305 158.972 173.439 166.564C171.568 169.481 169.692 172.394 167.799 175.298C151.883 197.501 151.883 197.501 141.182 221.924C134.224 222.154 127.852 221.528 121.037 220.212C114.761 219.062 108.639 218.126 102.254 217.892C96.8506 217.675 92.6089 216.852 87.6131 214.855C88.903 211.986 90.4619 210.116 92.7593 207.937C93.4211 207.302 94.083 206.668 94.7649 206.014C95.4572 205.359 96.1495 204.704 96.8628 204.029C101.36 199.754 105.705 195.447 109.802 190.805C111.689 188.704 113.706 186.754 115.759 184.808C118.939 181.745 121.952 178.625 124.86 175.319C127.221 172.689 129.662 170.135 132.102 167.576C139.046 160.277 145.662 152.787 152.077 145.041C152.476 144.564 152.874 144.088 153.285 143.596C159.51 136.139 165.069 128.482 170.236 120.297C170.991 119.124 170.991 119.124 171.761 117.928C181.291 102.885 188.984 86.6641 184.99 68.6541C181.571 59.1685 177.45 50.9247 167.97 46.0398C167.519 45.7562 167.069 45.4725 166.604 45.1803C166.604 44.597 166.604 44.0137 166.604 43.4128C164.772 43.0101 162.939 42.6073 161.107 42.2046C159.341 41.6454 159.341 41.6454 157.525 39.8779C146.527 37.6004 135.161 38.6887 125.35 44.1861C122.036 46.2798 119.286 48.4633 116.667 51.3663C116.211 51.8391 115.754 52.3118 115.284 52.7989C106.955 61.6766 106.095 72.4645 106.325 83.9363C106.715 91.3388 109.193 97.9957 112.734 104.535C113.943 107.041 113.943 107.041 113.943 110.576C114.543 110.576 115.142 110.576 115.759 110.576C116.244 111.453 116.728 112.33 117.228 113.234C123.133 123.771 129.862 133.421 137.586 142.787C138.458 144.157 138.458 144.157 138.458 146.808C137.44 147.876 136.408 148.935 135.318 149.934C133.792 151.344 132.355 152.813 130.918 154.309C130.391 154.857 129.865 155.405 129.322 155.97C128.779 156.537 128.236 157.104 127.676 157.689C127.111 158.279 126.547 158.868 125.965 159.476C121.572 164.074 117.284 168.742 113.128 173.544C112.268 174.527 112.268 174.527 111.39 175.529C110.623 176.418 110.623 176.418 109.84 177.324C108.496 178.622 108.496 178.622 106.68 178.622C105.052 176.795 103.531 174.963 102.027 173.044C101.354 172.196 101.354 172.196 100.667 171.331C96.8206 166.467 93.0931 161.525 89.429 156.529C88.6396 155.463 87.8499 154.398 87.0598 153.333C86.2415 152.226 85.4234 151.119 84.6055 150.012C84.2233 149.496 83.8411 148.981 83.4473 148.45C77.6257 140.537 77.6257 140.537 77.6257 137.971C77.0265 137.971 76.4272 137.971 75.8098 137.971C75.0175 136.732 74.2927 135.452 73.5967 134.16C71.3067 130.294 68.6479 127.198 65.3684 124.108C64.9331 123.697 64.4978 123.286 64.0493 122.863C62.8248 121.712 61.5998 120.563 60.3748 119.413C57.2733 116.345 54.998 113.838 53.6787 109.692C51.4314 103.143 44.5339 99.3659 38.6869 96.0115C35.7456 94.6142 32.7923 93.5604 29.7112 92.4997C22.913 90.1485 18.075 88.3542 13.9774 82.224C13.1616 80.5291 13.1616 80.5291 13.1616 78.7617C12.5624 78.7617 11.9632 78.7617 11.3457 78.7617C10.8963 76.5744 10.8963 76.5744 10.4378 74.343C13.0894 73.4828 15.7412 72.6241 18.3965 71.7747C20.1394 71.2011 21.8746 70.6027 23.5888 69.9521C28.5558 68.1006 32.5213 67.5173 37.6761 69.0407C40.4176 70.2706 43.0914 71.5702 45.7641 72.9327C52.4479 76.3307 59.1328 78.0805 66.7304 76.9942C69.5432 75.0577 70.1838 73.9802 71.2701 70.8082C71.3443 69.3057 71.3677 67.8005 71.3588 66.2964C71.3558 65.4277 71.3529 64.5591 71.3499 63.6642C71.3423 62.7591 71.3347 61.854 71.3268 60.9215C71.3227 60.0062 71.3186 59.0909 71.3144 58.1478C71.3037 55.8873 71.2888 53.6268 71.2701 51.3663C72.279 51.3435 73.2879 51.3207 74.3273 51.2973C86.0884 50.9145 94.0704 48.1542 104.12 42.2907C108.152 39.9535 108.152 39.9535 110.461 39.4464C112.9 38.7847 114.014 37.2207 115.759 35.4593C117.616 34.1173 119.476 32.8163 121.377 31.5378C125.205 28.9402 128.952 26.2815 132.61 23.4601C133.299 22.9308 133.989 22.4016 134.7 21.8564C136.055 20.811 137.403 19.7568 138.742 18.693C139.362 18.2168 139.983 17.7405 140.621 17.2498C141.168 16.8202 141.715 16.3905 142.278 15.9478C143.906 15.1337 143.906 15.1337 145.831 15.3607Z" fill="#040404"/>
<path d="M209.756 141.42C211.289 141.435 211.289 141.435 212.853 141.451C213.891 141.459 214.929 141.467 215.999 141.475C216.777 141.485 217.555 141.495 218.357 141.506C219.759 145.802 220.446 149.597 220.652 154.133C220.716 155.342 220.78 156.55 220.845 157.758C220.937 159.635 221.025 161.512 221.107 163.389C221.191 165.22 221.289 167.05 221.389 168.88C221.44 169.966 221.49 171.051 221.542 172.169C222.016 175.267 223.019 176.894 224.713 179.506C224.713 180.672 224.713 181.839 224.713 183.041C226.061 183.478 226.061 183.478 227.437 183.924C228.705 185.653 229.922 187.419 231.068 189.227C230.538 189.792 230.538 189.792 229.997 190.369C226.434 194.245 223.09 198.252 219.833 202.372C219.432 202.877 219.032 203.382 218.62 203.902C216.484 206.609 216.484 206.609 214.725 209.552C210.142 209.072 205.994 208.332 201.56 207.067C189.357 203.819 176.422 202.98 163.88 201.599C164.892 198.431 165.922 195.637 167.778 192.851C168.194 192.22 168.609 191.589 169.037 190.939C169.715 189.927 169.715 189.927 170.406 188.895C171.393 187.399 172.379 185.902 173.364 184.404C173.888 183.612 174.411 182.819 174.95 182.003C177.82 177.638 180.637 173.241 183.458 168.846C184.033 167.956 184.609 167.067 185.202 166.15C187.907 161.956 190.559 157.749 193.073 153.443C193.513 152.701 193.953 151.96 194.406 151.196C195.216 149.822 196.009 148.439 196.781 147.044C198.711 143.797 199.438 142.602 203.266 141.533C205.43 141.515 207.593 141.478 209.756 141.42Z" fill="#060606"/>
<path d="M155.709 60.3139C161.051 63.701 163.95 67.4271 165.696 73.4593C166.457 79.1345 166.595 84.3582 163.483 89.3663C159.698 94.0292 155.485 96.9138 149.353 97.6442C143.676 97.7686 137.724 97.8368 133.127 94.2129C127.927 89.3726 125.093 85.1245 124.612 78.0988C124.733 72.3422 126.49 68.0864 130.57 63.9041C137.644 57.6604 146.918 55.871 155.709 60.3139Z" fill="#050505"/>
<path d="M78.5336 160.064C79.1329 160.064 79.7321 160.064 80.3495 160.064C81.9134 162.005 83.3818 163.955 84.8325 165.974C88.7176 171.285 92.802 176.311 97.2793 181.162C100.324 184.531 100.324 184.531 100.324 187.459C99.0591 188.511 97.7859 189.554 96.4762 190.552C94.7681 191.968 93.377 193.473 91.9258 195.137C88.5955 198.952 84.9727 202.433 81.2929 205.928C79.4041 207.636 79.4041 207.636 78.5336 209.552C73.9182 209.416 71.8534 206.883 68.869 203.805C68.4629 203.368 68.0567 202.932 67.6383 202.483C68.9365 198.611 70.2523 194.751 71.7241 190.939C71.9347 190.393 72.1454 189.846 72.3625 189.284C73.0176 187.632 73.7246 185.999 74.4372 184.37C76.2583 179.639 76.7545 174.778 77.342 169.785C77.4596 168.847 77.5772 167.91 77.6984 166.944C77.9849 164.651 78.2631 162.358 78.5336 160.064Z" fill="#090909"/>
<path d="M229.252 139.738C229.552 139.738 229.852 139.738 230.16 139.738C232.409 151.426 232.546 163.232 232.884 175.087C229.614 171.871 229.732 168.525 229.696 164.248C229.679 163.547 229.663 162.846 229.646 162.123C229.597 159.89 229.567 157.658 229.536 155.424C229.506 153.908 229.475 152.391 229.442 150.875C229.365 147.163 229.304 143.451 229.252 139.738Z" fill="white"/>
<path d="M71.2701 51.3662C76.3637 51.3662 81.4573 51.3662 86.7052 51.3662C86.7052 51.6578 86.7052 51.9495 86.7052 52.2499C82.2109 52.5416 77.7165 52.8332 73.086 53.1337C73.2358 54.3913 73.3856 55.6489 73.54 56.9447C74.8716 70.5439 74.8716 70.5439 72.1781 74.0668C71.5788 74.4496 70.9796 74.8323 70.3622 75.2267C70.5102 74.5942 70.6581 73.9618 70.8106 73.3101C71.2628 70.848 71.3738 68.6212 71.3588 66.1237C71.3544 64.8293 71.3544 64.8293 71.3499 63.5087C71.3423 62.6185 71.3347 61.7282 71.3269 60.811C71.3207 59.45 71.3207 59.45 71.3145 58.0614C71.3038 55.8297 71.2875 53.5979 71.2701 51.3662Z" fill="#474747"/>
<path d="M78.5337 160.064C79.1329 160.064 79.7322 160.064 80.3496 160.064C81.825 161.831 81.825 161.831 83.0734 163.599C82.7738 164.182 82.4741 164.765 82.1654 165.366C81.8658 165.075 81.5662 164.783 81.2575 164.483C80.059 168.565 78.8605 172.648 77.6257 176.855C76.6563 173.081 76.9815 170.228 77.569 166.471C77.6597 165.855 77.7504 165.238 77.8438 164.603C78.0676 163.089 78.2998 161.577 78.5337 160.064Z" fill="#656565"/>
<path d="M67.6383 166.25C67.9379 166.25 68.2376 166.25 68.5463 166.25C68.8367 172.186 68.0736 176.64 65.8224 182.157C64.4464 178.645 65.3695 175.79 66.2197 172.215C66.4807 171.099 66.7417 169.982 67.0106 168.832C67.2177 167.98 67.4249 167.128 67.6383 166.25Z" fill="#9C9C9C"/>
<path d="M60.3748 51.3662C60.6557 51.9312 60.9365 52.4963 61.226 53.0784C62.0404 54.8446 62.0404 54.8446 63.0986 55.7848C63.1646 57.8643 63.1746 59.9457 63.1553 62.0261C63.1471 63.1664 63.139 64.3067 63.1305 65.4816C63.12 66.3644 63.1094 67.2473 63.0986 68.1569C62.799 68.1569 62.4993 68.1569 62.1906 68.1569C62.1906 64.949 62.1906 61.7411 62.1906 58.436C61.5914 58.436 60.9922 58.436 60.3748 58.436C60.3748 56.103 60.3748 53.7699 60.3748 51.3662Z" fill="#A8A8A8"/>
<path d="M133.918 61.0872C134.517 61.3788 135.117 61.6704 135.734 61.9709C134.89 62.9891 134.037 64.0004 133.181 65.0087C132.47 65.8545 132.47 65.8545 131.744 66.7174C130.286 68.1569 130.286 68.1569 127.563 69.0406C128.974 65.6676 131.227 63.5687 133.918 61.0872Z" fill="black"/>
<path d="M210.186 142.389C206.554 143.568 202.922 144.746 199.29 145.924C199.59 144.758 199.89 143.591 200.198 142.389C203.849 141.775 206.629 141.356 210.186 142.389Z" fill="black"/>
<path d="M74.9019 182.157C75.2015 182.157 75.5011 182.157 75.8098 182.157C76.1451 187.922 76.1451 187.922 74.4479 190.055C73.9985 190.365 73.5491 190.675 73.086 190.994C73.8804 184.145 73.8804 184.145 74.9019 182.157Z" fill="#555555"/>
<path d="M71.7086 73.1426C71.8753 73.1426 72.0124 73.0695 72.1546 72.9861C72.6729 72.6818 73.147 72.3122 73.6826 72.0352C73.9333 71.9056 73.706 72.1812 73.6474 72.2856C73.4318 72.6699 73.1924 73.0403 72.9763 73.4243" stroke="black" stroke-width="3" stroke-linecap="round"/>
<path d="M71.3212 74.8682C71.2494 74.8841 71.1694 75.0064 71.1001 75.0442C71.0573 75.0676 70.6055 75.2445 70.6247 75.1264C70.6316 75.084 70.7877 74.8169 70.8282 74.8877C70.8644 74.9511 70.8975 75.016 70.9338 75.0795" stroke="black" stroke-width="3" stroke-linecap="round"/>
<path d="M72.9764 70.9239C73.091 70.6291 73.2873 70.3554 73.4146 70.063C73.6212 69.5888 73.7777 69.096 73.9722 68.6172C74.1195 68.2547 74.1346 67.8293 74.1346 67.4433C74.1346 67.2866 74.1678 66.9119 74.0525 66.7801C74.0359 66.7611 74.0285 66.8256 74.0251 66.8505C74.0031 67.0081 73.982 67.166 73.9625 67.324C73.9148 67.7085 73.8734 68.0885 73.7394 68.4548C73.7272 68.4882 73.7032 68.5812 73.6886 68.5487C73.6483 68.4594 73.6807 68.1257 73.6807 68.0733C73.6807 67.433 73.689 66.7909 73.5946 66.156C73.5807 66.0619 73.5217 65.8033 73.487 65.8918C73.3898 66.1403 73.4066 66.4701 73.3638 66.7331C73.3192 67.0072 73.2854 67.2828 73.2405 67.5568C73.1527 68.0935 73.0409 68.5975 73.0097 69.1435C72.9922 69.4487 72.8355 69.6994 72.8355 70.0082C72.8355 70.2952 72.8112 70.5775 72.8003 70.8613C72.7957 70.9817 72.7226 71.152 72.6868 71.2682C72.6692 71.3256 72.5849 71.6012 72.6242 71.5225" stroke="black" stroke-width="3" stroke-linecap="round"/>
<path d="M72.6594 58.246C72.7309 59.6745 73.1525 61.0526 73.1525 62.4719C73.1525 62.6687 73.1569 62.8661 73.1525 63.0628C73.1496 63.1864 73.0888 63.3002 73.082 63.4228C73.0735 63.5764 73.0424 63.7486 72.9764 63.8806" stroke="black" stroke-width="3" stroke-linecap="round"/>
<path d="M75.7937 54.4779C75.5416 54.8463 75.3405 55.164 74.9974 55.4678C74.7783 55.6619 74.5986 55.8652 74.4026 56.0782C74.1938 56.3053 73.8417 56.3641 73.5672 56.4774C73.3923 56.5496 73.3669 56.5621 73.3638 56.3443C73.3594 56.0411 73.4892 55.7105 73.4127 55.4131C73.385 55.3055 73.2938 55.2345 73.2659 55.1313C73.2616 55.1154 73.1925 54.876 73.1877 54.8809C73.1521 54.9165 73.1874 55.1808 73.1857 55.2252C73.1775 55.4476 73.1666 55.7054 73.0996 55.9198C73.0756 55.9967 73.016 56.088 73.0116 56.1682C73.0091 56.2127 72.9432 56.4813 72.9236 56.4813C72.89 56.4813 72.8355 56.0274 72.8355 55.9726C72.8355 55.689 72.8003 55.3998 72.8003 55.1118C72.8003 54.7567 72.9059 54.3937 72.9059 54.0357C72.9059 53.841 72.9217 53.6493 72.9431 53.4566C72.9559 53.3413 72.9595 53.1744 73.0038 53.0692C73.0209 53.0285 73.032 52.8008 72.992 52.7894C72.9368 52.7736 72.778 52.717 72.8355 52.717" stroke="black" stroke-width="3" stroke-linecap="round"/>
<path d="M88.4012 51.5901C87.2868 51.9487 86.1036 52.187 84.95 52.3472C84.7688 52.3724 84.5809 52.4001 84.3982 52.4001C84.2143 52.4001 84.0304 52.4001 83.8465 52.4001C83.8131 52.4001 83.7199 52.384 83.69 52.4079C83.6094 52.4724 83.3662 52.4705 83.2576 52.4705C83.1137 52.4705 82.9945 52.4822 82.8546 52.5038C82.6 52.5429 82.3337 52.5409 82.0759 52.5409C81.7612 52.5409 81.4581 52.6818 81.1466 52.6818C80.9999 52.6818 80.9094 52.7208 80.7768 52.7503C80.6362 52.7815 80.4618 52.7522 80.319 52.7522C79.8139 52.7522 79.3165 52.8656 78.8223 52.8931C78.4739 52.9124 78.1652 52.9516 77.8206 53.0261C77.4496 53.1064 77.0067 53.034 76.6232 53.034C76.4426 53.034 76.0979 53.0502 76.3728 52.8931C76.4468 52.8508 76.2619 52.8227 76.2437 52.8227C76.0206 52.8227 75.7975 52.8627 75.5746 52.8853C75.2025 52.9229 74.8596 52.8227 74.4946 52.8227C74.2821 52.8227 74.1111 52.8111 73.892 52.8227C73.7171 52.8319 73.5389 52.8227 73.3638 52.8227" stroke="black" stroke-width="3" stroke-linecap="round"/>
<path d="M72.6946 53.0692C72.7413 53.1198 73.2915 53.5936 72.949 53.4565C72.8535 53.4184 72.7612 53.3534 72.7122 53.2609C72.589 53.0281 72.4718 52.9719 72.6868 52.7092C72.7313 52.6548 72.3856 52.5409 72.3249 52.5409C72.1715 52.5409 72.1761 52.4899 72.2368 52.6113" stroke="black" stroke-width="3" stroke-linecap="round"/>
<path d="M72.3425 54.02C72.373 54.3867 72.3805 54.7355 72.4149 55.0961C72.4528 55.495 72.5357 55.7982 72.4853 56.2015C72.4515 56.4719 72.4129 56.7043 72.4129 56.9782C72.4129 57.1225 72.6609 57.7346 72.4833 57.8234" stroke="black" stroke-width="3" stroke-linecap="round"/>
<path d="M72.7299 60.359C72.8279 60.4203 72.7299 61.2004 72.7299 61.3451C72.7299 61.6777 72.6242 62.0013 72.6242 62.3331C72.6242 62.5848 72.6242 62.8365 72.6242 63.0883C72.6242 63.3262 72.6203 63.5645 72.6242 63.8024C72.6292 64.1052 72.7139 64.399 72.6927 64.7063C72.6759 64.9499 72.6309 65.2578 72.5616 65.4889C72.4454 65.8761 72.502 66.4351 72.5812 66.831C72.6115 66.9825 72.6599 67.1316 72.6927 67.279C72.7469 67.5228 72.683 67.8335 72.6673 68.0753C72.6464 68.3944 72.5933 68.6531 72.5186 68.9518" stroke="black" stroke-width="3" stroke-linecap="round"/>
<path d="M59.3289 51.7886C59.2041 51.8302 59.1992 52.4504 59.2392 52.59C59.2535 52.6401 59.2705 52.6923 59.2747 52.7432C59.2903 52.9298 59.4004 53.0852 59.4403 53.2647" stroke="black" stroke-width="3" stroke-linecap="round"/>
<path d="M60.1923 57.4423C60.2054 57.5346 60.2495 57.6156 60.3145 57.6821C60.3847 57.754 60.554 57.9588 60.6595 57.9699C60.8823 57.9934 61.0921 57.9697 61.2815 57.8446C61.3587 57.7936 61.363 57.6761 61.3929 57.5939C61.4302 57.4915 61.5332 57.4683 61.5554 57.3464C61.5853 57.1818 61.6405 57.0451 61.6405 56.876C61.6405 56.7529 61.6748 56.5427 61.6405 56.4397" stroke="black" stroke-width="3" stroke-linecap="round"/>
<path d="M60.8606 56.6903C60.7605 56.6302 60.6811 56.4171 60.6007 56.3251C60.5317 56.2461 60.4663 56.1874 60.3903 56.1209C60.3195 56.059 60.2879 55.999 60.2541 55.9104C60.195 55.7552 60.3036 55.496 60.3036 55.3395C60.3036 55.1985 60.3176 55.048 60.3021 54.9078C60.2933 54.8292 60.2625 54.7689 60.2417 54.7005C60.2086 54.5911 60.1923 54.4904 60.1644 54.3787" stroke="black" stroke-width="3" stroke-linecap="round"/>
<path d="M60.2758 53.9053C60.1268 53.8425 59.9928 53.8708 59.8735 53.9671C59.8098 54.0187 59.688 54.0673 59.6662 54.1544C59.6552 54.1983 59.6762 54.219 59.6353 54.2395" stroke="black" stroke-width="3" stroke-linecap="round"/>
<path d="M62.0582 67.4406C61.9305 67.4123 61.8911 66.9443 61.8911 66.831C61.8911 66.5206 61.8226 66.2205 61.8091 65.9104C61.7865 65.391 61.6268 64.888 61.6142 64.3632C61.6035 63.9215 61.5569 63.4804 61.5569 63.0387C61.5569 62.5628 61.5478 62.0463 61.7101 61.592C61.7953 61.3533 61.721 61.0996 61.6977 60.8555C61.644 60.2921 61.5291 59.7407 61.5291 59.169C61.5291 58.9197 61.5647 58.7478 61.6621 58.5285C61.7171 58.4047 61.6405 58.2344 61.6405 58.1107" stroke="black" stroke-width="3" stroke-linecap="round"/>
<path d="M58.5212 68.4432C58.6811 68.5021 58.824 68.6179 58.973 68.7001C59.096 68.7679 59.2248 68.802 59.3537 68.8548C59.4075 68.8769 59.4678 68.9167 59.5239 68.9167" stroke="white" stroke-width="3" stroke-linecap="round"/>
<path d="M60.9164 69.3344C61.2164 69.3344 61.514 69.3743 61.8076 69.4242C61.9857 69.4544 62.1524 69.4586 62.3244 69.3963C62.4536 69.3495 62.5601 69.2755 62.6926 69.2447C62.9452 69.1859 62.948 68.9904 63.0887 68.8331C63.2073 68.7006 63.0084 68.7866 62.9371 68.7991C62.7306 68.8353 62.5237 68.8331 62.3151 68.8331C62.1583 68.8331 62.0417 68.8785 61.8911 68.9167C61.7789 68.9452 61.6872 68.941 61.5848 68.9878C61.5461 69.0055 61.4199 68.9812 61.4579 69.0002C61.5585 69.0505 61.696 69.0795 61.8076 69.0838C62.0356 69.0925 62.2372 69.0451 62.4265 68.9167C62.4791 68.881 62.5292 68.8419 62.5812 68.8053C62.6072 68.787 62.6811 68.772 62.6586 68.7496C62.623 68.714 62.3902 68.7825 62.3584 68.7898C62.1567 68.8358 61.9543 68.9091 61.7457 68.9167C61.5233 68.9248 60.9442 68.88 60.9442 69.223" stroke="white" stroke-width="3" stroke-linecap="round"/>
<path d="M74.3791 191.275C74.4207 190.735 74.7989 190.233 74.9679 189.726C75.0399 189.51 75.0369 189.254 75.0916 189.029C75.1557 188.765 75.1752 188.458 75.339 188.232C75.4113 188.132 75.452 188.109 75.3737 188.252C75.0709 188.803 74.7637 189.352 74.3989 189.865C74.3938 189.872 74.089 190.302 74.0773 190.285C73.9845 190.153 74.4054 189.632 74.4237 189.449C74.4429 189.257 74.5348 189.057 74.6117 188.88C74.7832 188.486 75.0661 188.178 75.2697 187.802C75.5086 187.36 75.8486 186.99 75.8486 186.466C75.8486 186.317 75.8932 186.186 75.8932 186.03C75.8932 185.858 75.8172 186.152 75.7942 186.198C75.7205 186.348 75.639 186.502 75.5369 186.634C75.3116 186.925 74.929 187.07 74.7453 187.401C74.6815 187.516 74.7292 187.648 74.681 187.757C74.6275 187.877 74.7259 187.846 74.8244 187.846" stroke="black" stroke-width="3" stroke-linecap="round"/>
<path d="M78.5204 177.782C78.8043 176.63 78.5508 175.397 78.6293 174.225C78.6561 173.825 78.7849 173.694 78.9905 173.384C79.1585 173.13 79.3795 172.806 79.3022 172.488C79.1979 172.059 79.1525 171.646 79.322 171.226C79.5273 170.719 79.7024 170.164 79.9454 169.678" stroke="black" stroke-width="3" stroke-linecap="round"/>
<path d="M81.2814 165.625C81.2814 164.627 81.2853 163.629 80.8361 162.731" stroke="black" stroke-width="3" stroke-linecap="round"/>
<path d="M79.4556 160.95H79.5447" stroke="black" stroke-width="3" stroke-linecap="round"/>
<path d="M79.3666 162.018C79.2761 162.131 79.2876 162.331 79.275 162.469C79.2532 162.708 79.1516 162.939 79.1093 163.176C79.0264 163.64 78.9658 164.128 78.9658 164.599C78.9658 165.236 78.9854 165.845 78.8569 166.469C78.6304 167.569 78.328 168.644 78.1197 169.747C77.9968 170.398 78.1197 171.05 78.1197 171.704C78.1197 171.837 78.0647 172.003 78.0109 172.122C77.881 172.409 77.8572 172.741 77.7189 173.017" stroke="black" stroke-width="3" stroke-linecap="round"/>
<path d="M81.9938 164.779C81.9938 165.093 81.8364 165.39 81.7341 165.68C81.6492 165.92 81.6007 166.159 81.546 166.405C81.4351 166.904 81.1143 167.42 80.7915 167.807" stroke="black" stroke-width="3" stroke-linecap="round"/>
<path d="M82.5727 164.2C82.5677 164.246 82.5424 164.291 82.5282 164.334" stroke="black" stroke-width="3" stroke-linecap="round"/>
<path d="M68.5011 166.65C68.4469 167.626 68.1053 168.553 68.1053 169.542C68.1053 170.039 68.1205 170.545 68.1795 171.038C68.1959 171.176 68.1809 171.305 68.1622 171.442C68.0707 172.112 68.0344 172.781 67.9865 173.455C67.9443 174.051 67.7876 174.531 67.6328 175.091C67.5501 175.389 67.5084 175.693 67.4472 175.996C67.3221 176.616 67.1324 177.218 67.0217 177.842C66.8943 178.56 66.7528 179.186 66.4527 179.841C66.2456 180.292 66.015 180.779 65.953 181.275C65.9324 181.44 65.9208 181.608 65.8837 181.77C65.8545 181.898 65.8544 181.428 65.854 181.424C65.7912 180.686 65.6385 179.649 66.0371 178.955C66.2211 178.635 66.4057 178.314 66.564 177.98C66.699 177.695 66.6937 177.37 66.7867 177.072C66.8933 176.731 66.9956 176.389 67.0959 176.046C67.1594 175.828 67.29 175.649 67.3878 175.442C67.5101 175.184 67.5919 174.949 67.6649 174.67C67.7914 174.187 68.009 173.737 68.0781 173.24C68.1175 172.956 68.0988 172.669 68.135 172.384C68.1411 172.336 68.1754 171.82 68.1201 171.82C67.9985 171.82 67.906 172.049 67.9247 172.152C67.9903 172.513 68.0085 172.886 68.0113 173.255C68.0164 173.938 68.05 174.617 67.9865 175.298C67.898 176.248 67.7794 177.218 67.5214 178.139C67.3179 178.864 67.0489 179.569 66.8386 180.291C66.6167 181.053 66.558 181.856 66.3241 182.616C66.2665 182.803 66.1766 182.991 66.1855 182.626C66.2219 181.14 66.4728 179.628 67.0662 178.265C67.4428 177.399 67.76 176.518 68.0261 175.613C68.1929 175.045 68.3819 174.468 68.412 173.873C68.4544 173.038 68.5549 172.206 68.6001 171.37C68.6555 170.344 68.5973 169.314 68.6792 168.29C68.698 168.055 68.9209 167.876 68.981 167.649C69.0414 167.421 69.1119 167.19 69.1691 166.961" stroke="white" stroke-width="3" stroke-linecap="round"/>
<path d="M67.3434 165.314C67.0456 165.718 66.7645 166.18 66.7645 166.694" stroke="black" stroke-width="3" stroke-linecap="round"/>
<path d="M65.0278 173.953C65.2491 173.953 65.2764 173.057 65.3395 172.829C65.4304 172.501 65.5072 172.221 65.5201 171.879C65.526 171.723 65.5975 171.504 65.5621 171.35C65.5499 171.297 65.5349 171.455 65.5225 171.508C65.4507 171.818 65.3741 172.126 65.2949 172.434C65.1566 172.972 65.0196 173.497 64.9288 174.042C64.8578 174.468 64.6193 174.85 64.4588 175.244C64.2961 175.644 64.1814 176.005 63.964 176.38C63.8137 176.638 63.6129 176.937 63.5385 177.228C63.4468 177.586 63.4014 177.961 63.3455 178.326C63.2895 178.693 63.0931 179.039 63.0041 179.403C62.9565 179.597 62.938 179.795 62.8903 179.989C62.8477 180.162 62.7145 180.58 62.8903 180.177C63.0159 179.889 63.1464 179.602 63.2911 179.323C63.3979 179.117 63.5661 178.956 63.6671 178.745C63.7649 178.54 63.819 178.132 63.6473 177.96" stroke="black" stroke-width="3" stroke-linecap="round"/>
<path d="M63.5582 177.649C63.597 177.435 63.815 177.24 63.9021 177.04C63.9449 176.942 63.946 176.844 64.0035 176.758" stroke="black" stroke-width="3" stroke-linecap="round"/>
<path d="M65.384 168.075C65.32 168.426 65.2949 168.747 65.2949 169.111C65.2949 169.334 65.3638 169.54 65.3295 169.767C65.307 169.916 65.1887 170.301 65.3196 169.908C65.4456 169.53 65.4593 169.079 65.6165 168.718C65.6765 168.58 65.7495 168.422 65.7823 168.275C65.8362 168.032 65.7854 168.738 65.7847 168.812C65.7804 169.334 65.7206 169.893 65.5448 170.385C65.453 170.642 65.6664 169.853 65.7105 169.584C65.7638 169.259 65.7793 168.955 65.7847 168.629C65.7857 168.573 65.8602 167.778 65.9827 167.988C66.0444 168.094 65.9444 168.296 65.9183 168.396C65.8436 168.684 65.7997 168.984 65.7056 169.267C65.6316 169.489 65.5527 169.692 65.4928 169.923C65.4314 170.159 65.3618 170.389 65.3295 170.633C65.3205 170.701 65.2072 171.05 65.2726 171.103C65.3347 171.152 65.6941 171.148 65.6066 171.192" stroke="black" stroke-width="3" stroke-linecap="round"/>
<path d="M75.9377 186.466C75.9715 185.586 76.3144 184.786 76.4621 183.932C76.4936 183.751 76.5512 183.527 76.5611 183.349C76.5692 183.202 76.3191 183.273 76.2692 183.358C76.0177 183.79 76.2468 184.343 76.0663 184.781C75.8884 185.213 75.6882 185.722 75.3835 186.085C75.1989 186.305 75.1273 186.596 74.958 186.822" stroke="black" stroke-width="3" stroke-linecap="round"/>
<path d="M74.3346 182.102C74.3139 182.268 73.98 182.461 73.8646 182.577C73.7824 182.659 73.7329 182.771 73.6567 182.859C73.5657 182.964 73.4286 183.017 73.3426 183.123C73.2362 183.254 73.2117 183.413 73.157 183.569C73.0634 183.836 73.0013 184.148 72.9443 184.427C72.904 184.624 72.8297 184.759 72.687 184.907C72.6243 184.972 72.5089 185.185 72.5089 185.041" stroke="white" stroke-width="3" stroke-linecap="round"/>
<path d="M75.5369 185.441C75.2921 185.931 75.0722 186.333 74.5523 186.535C74.5118 186.551 74.2604 186.654 74.2604 186.557C74.2604 186.236 74.585 185.866 74.7156 185.585C74.9171 185.151 75.0608 184.678 75.2252 184.229C75.404 183.741 75.622 183.25 75.8684 182.792C75.9833 182.579 75.8909 182.282 75.9624 182.057C76.0377 181.821 76.1634 181.625 76.2024 181.372C76.2352 181.159 75.9237 181.297 75.8313 181.369C75.6242 181.53 75.7152 181.971 75.6359 182.201C75.4711 182.677 75.1807 183.168 75.1807 183.682C75.1807 183.827 75.049 183.996 75.0025 184.13C74.9426 184.303 74.8916 184.478 74.8343 184.65C74.726 184.975 74.6217 185.289 74.5028 185.61C74.4121 185.854 74.3466 186.296 74.1342 186.466C73.9837 186.586 73.8893 186.641 73.8893 186.847C73.8893 187.18 73.8408 187.476 73.7458 187.802C73.5698 188.404 73.4696 189.01 73.3104 189.612C73.3002 189.651 73.1289 190.187 73.1422 190.196C73.1778 190.222 73.3586 190.185 73.3772 190.184C73.6554 190.161 73.937 190.153 74.2158 190.169C75.1771 190.226 76.3526 190.439 76.8209 191.408C76.8832 191.538 76.9783 192.283 77.2686 192.052C77.4749 191.888 77.601 191.624 77.709 191.394C78.0019 190.768 78.3317 190.036 78.3745 189.338C78.4026 188.878 78.2458 188.447 77.9861 188.074C77.8495 187.877 77.5575 187.55 77.2785 187.554C76.8415 187.56 76.278 191.581 78.7208 190.226C79.2622 189.926 79.7869 189.495 80.1384 188.979C80.4201 188.566 80.2215 188.336 79.8415 188.128C79.613 188.003 79.2384 187.843 79.1068 188.173C79.04 188.339 79.2987 188.741 79.3591 188.863C79.9537 190.063 81.0698 191.183 82.2461 191.809C82.4945 191.941 82.9451 192.179 83.1887 191.898C83.6592 191.355 83.8048 190.283 83.7107 189.61C83.5825 188.693 83.0923 187.852 82.5529 187.119C82.5148 187.067 81.8105 186.034 81.5534 186.377C81.3033 186.71 81.2125 187.32 81.1527 187.705C81.0124 188.609 81.0678 189.515 81.5955 190.293C81.9191 190.77 82.3004 190.987 82.8844 190.844C83.8393 190.612 84.8928 189.967 85.5513 189.241C85.7941 188.974 86.0808 188.543 85.8976 188.165C85.6594 187.674 84.8769 187.663 84.4257 187.678C83.8099 187.698 83.2356 187.851 82.7954 188.291" stroke="black" stroke-linecap="round"/>
<path d="M76.5683 173.83C76.5683 173.417 76.5126 173.01 76.5126 172.598C76.5126 172.257 76.5962 171.926 76.5962 171.589C76.5962 171.326 76.5903 171.063 76.5962 170.8C76.5993 170.661 76.6263 170.526 76.624 170.382C76.6231 170.322 76.6265 170.127 76.5683 170.098" stroke="white" stroke-linecap="round"/>
<path d="M69.56 163.988C69.5135 164.202 69.3229 164.384 69.24 164.587C69.2139 164.651 69.2014 164.717 69.1651 164.779C69.084 164.919 69.0976 165.121 69.0438 165.276C68.9692 165.492 68.8948 165.723 68.8619 165.949C68.8048 166.339 68.5957 166.717 68.4799 167.091C68.4385 167.224 68.4024 167.361 68.3521 167.491C68.3244 167.563 68.2778 167.605 68.2489 167.679C68.2292 167.73 68.2473 167.757 68.1998 167.788C68.1665 167.809 68.131 167.83 68.1069 167.862C68.0825 167.895 68.1293 167.601 68.1353 167.571C68.1827 167.333 68.2573 167.104 68.2953 166.865C68.3215 166.7 68.3503 166.534 68.3805 166.371C68.4203 166.156 68.5243 165.949 68.5728 165.733C68.613 165.555 68.6105 165.368 68.6541 165.191C68.6904 165.044 68.6911 164.884 68.7019 164.733C68.7085 164.64 68.7425 164.544 68.747 164.453C68.7486 164.421 68.804 164.203 68.7367 164.222C68.6364 164.251 68.5823 164.649 68.5496 164.729C68.3122 165.309 68.4536 166 68.2824 166.599C68.1973 166.897 68.1411 167.193 68.0914 167.496C68.0674 167.643 68.0283 167.788 68.0037 167.936C68.0002 167.957 67.9736 168.06 67.9856 167.971C68.0282 167.655 68.1295 167.348 68.2153 167.042C68.3526 166.552 68.2869 166.019 68.3625 165.516C68.4137 165.176 68.4915 164.822 68.4915 164.476" stroke="#FFFAFA" stroke-linecap="square"/>
<path d="M67.9805 170.307C67.871 170.696 67.9002 171.105 67.6888 171.458C67.6019 171.603 67.4885 171.783 67.4462 171.947C67.4178 172.057 67.3672 172.16 67.3404 172.271C67.3238 172.339 67.3436 172.413 67.3185 172.479C67.2998 172.527 67.3102 172.579 67.3056 172.63C67.2951 172.745 67.239 172.864 67.2088 172.975C67.1439 173.215 67.0459 173.454 67.0281 173.703C67.0225 173.781 66.9871 173.852 66.9829 173.932C66.9781 174.023 66.9977 174.124 66.9584 174.209C66.8911 174.356 66.764 174.483 66.6797 174.622C66.656 174.661 66.5661 174.85 66.5661 174.737C66.5661 174.433 66.7652 174.155 66.8087 173.857C66.8392 173.648 66.9386 173.46 66.9997 173.259C67.0495 173.095 67.0965 172.929 67.1313 172.761C67.1986 172.437 67.3134 172.117 67.3314 171.784C67.3426 171.576 67.4173 171.366 67.4694 171.166C67.4806 171.123 67.5536 170.813 67.534 171.006C67.47 171.633 67.3204 172.287 67.121 172.885" stroke="#FFFAFA" stroke-linecap="square"/>
<path d="M66.819 174.325C66.819 174.653 66.724 174.912 66.6216 175.22C66.572 175.368 66.523 175.477 66.4332 175.608C66.3323 175.756 66.2288 175.894 66.1867 176.067C66.1361 176.276 65.9522 176.439 65.8409 176.615C65.7171 176.81 65.6099 177.019 65.5311 177.237C65.5026 177.315 65.5017 177.399 65.4692 177.475C65.3725 177.703 65.2627 177.889 65.2627 178.142C65.2627 178.596 65.0601 179.026 64.8962 179.436C64.7976 179.682 64.7176 179.936 64.6355 180.188C64.6284 180.21 64.6023 180.327 64.5762 180.341C64.5525 180.355 64.5438 180.372 64.5323 180.397C64.5083 180.448 64.498 180.284 64.4962 180.272" stroke="#FFFAFA" stroke-linecap="square"/>
<path d="M66.308 176.671C66.3419 176.4 66.4628 176.146 66.4887 175.874C66.5048 175.703 66.4846 175.532 66.5054 175.362C66.5162 175.274 66.5102 175.186 66.5196 175.098C66.5437 174.875 66.6556 174.653 66.7261 174.441" stroke="#FFFAFA" stroke-linecap="square"/>
<path d="M114.106 111.653C113.962 111.39 113.815 111.129 113.685 110.859C113.648 110.781 113.631 110.763 113.672 110.672C113.738 110.529 113.853 110.444 113.96 110.337" stroke="#FFFAFA" stroke-linecap="square"/>
<path d="M113.345 113.145C113.276 112.711 113.362 112.287 113.404 111.855C113.421 111.683 113.59 111.504 113.757 111.454C114.006 111.379 114.178 112.168 114.229 112.326C114.314 112.588 114.466 112.128 114.506 112.037C114.598 111.823 114.635 111.587 114.727 111.374C114.768 111.278 114.869 111.213 114.896 111.111C114.93 110.981 114.929 110.947 115.011 110.851C115.04 110.817 115.157 110.797 115.203 110.807C115.273 110.822 115.191 110.828 115.156 110.817C115.074 110.79 114.999 110.743 114.923 110.701C114.618 110.533 114.511 110.144 114.369 109.843C114.304 109.705 114.274 109.556 114.223 109.414C114.174 109.281 114.057 109.187 113.991 109.066C113.931 108.957 113.922 108.584 113.761 108.566C113.73 108.562 113.911 108.689 113.924 108.699C114.047 108.795 114.136 109.077 114.194 109.219C114.454 109.863 114.732 110.492 115.087 111.091C115.145 111.188 115.247 111.348 115.247 111.151C115.247 110.971 115.219 110.868 115.143 110.714C115.092 110.612 115.009 110.534 114.954 110.438C114.877 110.303 114.731 110.243 114.636 110.121C114.579 110.049 114.532 109.966 114.45 109.921C114.331 109.855 114.299 109.67 114.246 109.554C114.22 109.499 114.146 109.471 114.09 109.463C113.916 109.439 113.852 109.615 113.784 109.744C113.6 110.097 113.527 110.524 113.459 110.912C113.439 111.03 113.376 111.31 113.488 111.27C113.598 111.231 113.675 111.064 113.714 110.969C113.742 110.903 113.86 110.594 113.683 110.766C113.515 110.93 113.234 111.322 113.644 111.387C113.852 111.42 114.064 111.279 114.129 111.081C114.155 111 114.073 111.159 114.073 111.208C114.073 111.608 114.711 110.857 114.837 110.87C114.907 110.878 114.987 111.05 115.019 111.098C115.08 111.188 115.171 111.256 115.247 111.332" stroke="black" stroke-linecap="square"/>
<path d="M12.5232 78.7091C12.518 78.2561 12.447 77.8552 12.3417 77.4176C12.2938 77.2185 12.2475 77.029 12.2328 76.8216C12.2022 76.3884 12.2137 75.9526 12.2137 75.5187C12.2137 75.3159 12.2145 75.1284 12.2748 74.9341C12.3204 74.7872 12.3657 74.6186 12.4353 74.4794C12.4573 74.4353 12.5129 74.1846 12.5041 74.1909C12.3305 74.3149 12.3856 74.876 12.3856 75.0793C12.3856 75.3658 12.3415 75.6931 12.4028 75.9753C12.4313 76.1062 12.4085 76.2389 12.4277 76.3707C12.4426 76.4737 12.4858 76.5764 12.4888 76.6802C12.4953 76.9071 12.5232 77.1298 12.5232 77.3603C12.5232 77.7868 12.4544 78.2042 12.4544 78.6327C12.4544 78.7286 12.4776 78.7639 12.5232 78.8485C12.611 79.0116 12.592 79.0059 12.592 78.8161C12.592 78.6371 12.592 78.4582 12.592 78.2792C12.592 77.795 12.7107 77.2485 12.5576 76.7738C12.4245 76.3612 12.42 75.9339 12.42 75.5034C12.42 75.412 12.5573 74.4131 12.4735 74.4106C12.2152 74.403 11.8236 74.3869 11.6024 74.531C11.1709 74.8119 11.0222 75.5254 10.9165 75.9905C10.8406 76.3244 11.0987 75.3267 11.1286 74.9857C11.1506 74.7345 11.1536 74.7181 11.0178 74.9341C10.9234 75.0841 10.834 75.2713 10.7159 75.404C10.6388 75.4908 10.725 75.172 10.735 75.0563C10.7385 75.0164 10.7925 74.7096 10.7484 74.6743C10.6846 74.6232 10.7226 74.8357 10.714 74.9169C10.687 75.1729 10.6846 75.2259 10.6491 75.4843C10.6309 75.6162 10.5631 76.0098 10.5917 75.8797C10.6833 75.4643 10.7564 75.0437 10.8286 74.6246C10.8308 74.6119 10.8671 74.1384 10.9146 74.0935C10.9609 74.0498 10.9613 74.2121 10.9796 74.2731C10.9955 74.3262 11.1216 74.7627 11.1324 74.7965C11.2235 75.0816 11.2891 75.3012 11.5259 74.9761C11.7302 74.6957 11.9319 74.3777 12.0723 74.0591C12.2128 73.7403 11.2676 74.0858 11.163 74.1317C11.1118 74.1541 10.9665 74.2376 11.0139 74.2081C11.0497 74.1859 11.316 73.9595 11.3425 73.9865C11.4793 74.1258 11.3816 75.1498 11.3808 75.1939C11.3632 76.074 11.297 76.9495 11.2604 77.8284C11.2518 78.0336 11.2838 78.1458 11.3387 77.8819C11.423 77.4766 11.4338 77.0583 11.4381 76.6458C11.4456 75.9178 11.5117 78.1002 11.545 78.8275C11.5475 78.8815 11.5621 79.583 11.5603 79.0339C11.5584 78.4518 11.556 77.8691 11.5259 77.2877C11.5222 77.215 11.5169 77.1424 11.5107 77.0699C11.504 76.9931 11.5001 76.9275 11.4896 77.0336C11.4477 77.4598 11.436 77.8915 11.4266 78.3194C11.4241 78.4334 11.4764 79.0806 11.3655 78.5161C11.2026 77.6876 11.0158 76.8619 10.7637 76.0555C10.6732 75.7663 10.4064 74.9351 10.3701 75.2359C10.3067 75.7621 10.4062 76.3442 10.458 76.8674C10.4698 76.9865 10.5237 77.7892 10.5459 77.1158C10.5595 76.7018 10.5589 76.2867 10.5975 75.874C10.6043 75.8008 10.6304 75.5827 10.6319 75.6562C10.6447 76.3001 10.6311 76.9457 10.6319 77.5896C10.632 77.6858 10.633 78.774 10.6395 78.9536C10.6426 79.0393 10.6333 79.1297 10.6643 79.2096C10.6733 79.2327 10.7101 79.1828 10.7197 79.1599C10.984 78.5308 11.1369 77.8336 11.3616 77.1884C11.5026 76.7837 11.6466 76.3798 11.7934 75.9772C11.8249 75.8909 11.8208 75.8423 11.8488 75.9371C11.8938 76.0895 11.9601 76.3906 11.9844 76.5064C12.1225 77.1619 12.2228 77.8214 12.3073 78.4856C12.3385 78.7303 12.3492 78.5704 12.3436 78.4779C12.3101 77.9247 12.0661 77.3507 12.2061 76.791C12.2713 76.5299 12.2785 76.2263 12.3169 75.9581" stroke="white" stroke-linecap="square"/>
<path d="M75.8104 136.314C75.8322 136.452 76.0271 136.58 76.1293 136.662" stroke="black" stroke-linecap="square"/>
<path d="M76.8832 137.154C77.0446 137.632 77.1954 138.133 77.5276 138.522C77.5775 138.58 77.6237 138.667 77.6951 138.702C77.7437 138.727 77.7839 138.717 77.8143 138.767C77.919 138.937 77.9494 139.122 78.0205 139.307C78.0663 139.426 78.1383 139.541 78.1816 139.671C78.1981 139.72 78.2109 139.77 78.2299 139.819C78.2709 139.924 78.1727 139.569 78.1703 139.561C78.1101 139.352 78.0066 139.159 77.9416 138.951C77.8911 138.789 77.7689 138.612 77.6677 138.475C77.4912 138.238 77.3583 137.981 77.1458 137.768C77.0781 137.7 77.017 137.647 76.9638 137.567C76.8933 137.461 76.8433 137.555 76.7898 137.631C76.6418 137.842 76.5537 137.961 76.7608 138.14C76.8766 138.24 76.9504 138.367 77.0717 138.462C77.1711 138.54 77.191 138.651 77.2747 138.735C77.4287 138.889 77.6002 139.017 77.7305 139.197C77.7973 139.289 77.8517 139.404 77.9013 139.506C77.9034 139.511 77.9336 139.64 77.9496 139.635C77.9767 139.627 77.8757 139.289 77.8691 139.242" stroke="black" stroke-linecap="square"/>
<path d="M76.3323 137.473C76.3289 137.447 76.3229 137.454 76.3033 137.444" stroke="black" stroke-linecap="square"/>
<path d="M77.6791 136.865C77.6791 136.936 77.6792 137.007 77.6781 137.078C77.6767 137.163 77.7096 137.408 77.6334 137.475C77.5891 137.513 77.494 137.496 77.4393 137.506C77.3939 137.515 77.3475 137.546 77.3052 137.563C77.1505 137.627 76.9339 137.664 76.7972 137.769C76.7299 137.821 76.6241 137.944 76.5392 137.959C76.4955 137.967 76.3422 137.691 76.5351 137.997C76.5705 138.053 76.6139 138.133 76.6692 138.174C76.6879 138.187 76.7251 138.192 76.7282 138.218C76.7361 138.286 76.8398 138.306 76.8755 138.358C76.9859 138.516 77.1371 138.684 77.1853 138.877" stroke="black" stroke-linecap="square"/>
<path d="M77.5328 139.316C77.5328 139.248 77.594 139.22 77.6323 139.171C77.6768 139.115 77.5663 139.014 77.5328 138.968" stroke="black" stroke-linecap="square"/>
<path d="M146.569 0C149.405 1.5026 151.094 3.86027 153.042 6.29651C157.636 11.7894 162.556 16.2097 168.42 20.436C168.94 20.8111 169.459 21.1862 169.994 21.5726C177.641 27.0657 185.015 31.8745 193.843 35.4593C196.388 36.5965 198.917 37.7691 201.447 38.939C202.82 39.5688 204.194 40.1982 205.568 40.8272C207.609 41.7623 209.648 42.7018 211.682 43.651C221.608 48.1581 231.892 50.2382 242.701 51.5872C243.861 51.7399 245.02 51.8925 246.214 52.0498C249.033 52.4197 251.853 52.7809 254.675 53.1337C254.195 56.7327 253.454 59.443 251.607 62.5923C251.153 63.3737 250.698 64.1551 250.23 64.9602C249.73 65.7964 249.231 66.6326 248.717 67.4942C248.194 68.3811 247.671 69.268 247.133 70.1818C239.613 82.846 231.627 95.2363 223.645 107.628C223.034 108.578 222.422 109.528 221.792 110.507C220.637 112.298 219.48 114.088 218.32 115.876C215.138 120.802 212.115 125.779 209.278 130.901C210.559 130.71 210.559 130.71 211.867 130.515C212.997 130.35 214.128 130.186 215.293 130.017C216.409 129.853 217.526 129.689 218.676 129.52C221.641 129.174 224.456 129.062 227.437 129.134C230.863 140.466 231.83 151.646 232.526 163.412C232.643 165.242 232.762 167.072 232.884 168.901C232.92 169.544 232.956 170.187 232.994 170.85C233.36 174.851 234.888 176.87 237.708 179.727C238.416 180.46 239.124 181.194 239.853 181.95C241.687 183.666 243.519 185.151 245.595 186.576C244.808 190.665 242.257 192.863 239.353 195.744C234.243 200.944 229.6 206.354 225.11 212.065C224.38 212.986 223.649 213.906 222.897 214.855C222.508 215.355 222.119 215.856 221.718 216.371C218.717 220.094 218.717 220.094 215.179 220.709C211.998 220.471 209.226 219.604 206.213 218.61C196.365 215.438 185.925 214.466 175.684 213.087C175.04 212.99 174.395 212.892 173.732 212.792C168.203 211.999 163.317 212.203 157.525 212.203C153.929 218.911 150.334 225.618 146.63 232.529C125.448 232.894 125.448 232.894 115.461 229.836C111.362 228.801 107.545 228.739 103.332 228.663C95.9925 228.411 89.8757 227.405 83.0734 224.576C81.6443 224.036 81.6443 224.036 80.1864 223.485C70.3131 219.678 65.0294 215.058 58.5589 206.901C57.7618 205.939 57.7618 205.939 56.9487 204.958C55.835 203.366 55.835 203.366 55.8918 201.323C56.743 198.948 56.743 198.948 58.4667 196.124C60.3725 192.919 61.6225 189.621 62.7014 186.078C62.8912 185.459 63.081 184.84 63.2766 184.203C63.8353 182.346 64.376 180.485 64.9145 178.622C65.2094 177.647 65.5044 176.672 65.8083 175.667C68.8071 164.322 70.5374 149.607 64.9145 138.855C62.4183 134.768 59.7383 131.758 55.8812 128.871C51.3714 125.226 47.6092 120.342 44.9397 115.27C39.8482 107.063 31.591 103.768 22.6631 100.599C14.6807 97.6244 10.6823 94.4136 5.89809 87.5988C5.21517 86.9478 5.21517 86.9478 4.51844 86.2836C0.943634 82.7307 0.0590479 79.6418 0.0531999 74.7296C0.0356439 73.7443 0.018088 72.7589 0 71.7436C0.555782 68.4085 1.46288 67.655 4.0822 65.5058C14.1583 60.8931 28.3146 55.889 39.492 58.436C43.9448 60.1899 48.007 62.344 52.2033 64.6221C55.4701 65.9904 58.8174 67.0625 62.1907 68.157C62.1907 64.9491 62.1907 61.7412 62.1907 58.436C61.5914 58.436 60.9922 58.436 60.3748 58.436C60.3081 57.3493 60.3081 57.3493 60.24 56.2405C60.1382 54.812 60.1382 54.812 60.0343 53.3546C59.9395 51.9398 59.9395 51.9398 59.8428 50.4964C59.485 47.9603 58.8347 46.526 57.6509 44.2965C57.6509 43.13 57.6509 41.9635 57.6509 40.7616C58.8158 40.777 58.8158 40.777 60.0041 40.7927C81.2955 41.0959 81.2955 41.0959 100.324 32.8081C101.883 31.8341 103.445 30.8644 105.009 29.8981C114.076 24.2245 122.807 18.1857 131.194 11.5988C132.583 10.5172 132.583 10.5172 134 9.4137C138.756 5.74377 138.756 5.74377 143.051 1.59484C144.814 0.110465 144.814 0.110465 146.569 0Z" fill="white"/>
<path d="M145.831 15.3607C148.031 16.2074 149.074 17.3487 150.658 19.0553C157.605 26.0689 165.784 32.0461 174.776 36.3431C174.776 36.9263 174.776 37.5096 174.776 38.1105C175.394 38.3292 176.012 38.5479 176.648 38.7733C179.241 39.847 181.598 41.1441 184.025 42.5291C185.869 43.5544 185.869 43.5543 188.735 44.6832C191.983 46.0458 194.962 47.6214 198.013 49.3503C203.518 52.203 209.223 54.0577 215.179 55.7849C215.968 56.0152 216.758 56.2454 217.571 56.4827C224.425 58.4385 231.295 59.9042 238.332 61.0872C238.956 62.689 238.956 62.689 239.24 64.6221C238.346 65.5191 237.435 66.4001 236.516 67.2733C235.581 68.6704 234.689 70.095 233.828 71.5365C233.324 72.3733 232.821 73.21 232.303 74.0721C231.783 74.9452 231.263 75.8184 230.728 76.718C227.593 81.9524 224.459 87.1757 221.134 92.2982C220.35 93.5109 219.588 94.7369 218.832 95.9666C216.801 99.2511 214.679 102.478 212.569 105.715C208.559 111.879 204.589 118.065 200.652 124.273C196.504 130.813 192.316 137.327 188.09 143.82C183.173 151.381 178.305 158.972 173.439 166.564C171.568 169.481 169.692 172.394 167.799 175.298C151.883 197.501 151.883 197.501 141.182 221.924C134.224 222.154 127.852 221.528 121.037 220.212C114.761 219.062 108.639 218.126 102.254 217.892C96.8506 217.675 92.6089 216.852 87.6131 214.855C88.903 211.986 90.4619 210.116 92.7593 207.937C93.4211 207.302 94.083 206.668 94.7649 206.014C95.4572 205.359 96.1495 204.704 96.8628 204.029C101.36 199.754 105.705 195.447 109.802 190.805C111.689 188.704 113.706 186.754 115.759 184.808C118.939 181.745 121.952 178.625 124.86 175.319C127.221 172.689 129.662 170.135 132.102 167.576C139.046 160.277 145.662 152.787 152.077 145.041C152.476 144.564 152.874 144.088 153.285 143.596C159.51 136.139 165.069 128.482 170.236 120.297C170.991 119.124 170.991 119.124 171.761 117.928C181.291 102.885 188.984 86.6641 184.99 68.6541C181.571 59.1685 177.45 50.9247 167.97 46.0398C167.519 45.7562 167.069 45.4725 166.604 45.1803C166.604 44.597 166.604 44.0137 166.604 43.4128C164.772 43.0101 162.939 42.6073 161.107 42.2046C159.341 41.6454 159.341 41.6454 157.525 39.8779C146.527 37.6004 135.161 38.6887 125.35 44.1861C122.036 46.2798 119.286 48.4633 116.667 51.3663C116.211 51.8391 115.754 52.3118 115.284 52.7989C106.955 61.6766 106.095 72.4645 106.325 83.9363C106.715 91.3388 109.193 97.9957 112.734 104.535C113.943 107.041 113.943 107.041 113.943 110.576C114.543 110.576 115.142 110.576 115.759 110.576C116.244 111.453 116.728 112.33 117.228 113.234C123.133 123.771 129.862 133.421 137.586 142.787C138.458 144.157 138.458 144.157 138.458 146.808C137.44 147.876 136.408 148.935 135.318 149.934C133.792 151.344 132.355 152.813 130.918 154.309C130.391 154.857 129.865 155.405 129.322 155.97C128.779 156.537 128.236 157.104 127.676 157.689C127.111 158.279 126.547 158.868 125.965 159.476C121.572 164.074 117.284 168.742 113.128 173.544C112.268 174.527 112.268 174.527 111.39 175.529C110.623 176.418 110.623 176.418 109.84 177.324C108.496 178.622 108.496 178.622 106.68 178.622C105.052 176.795 103.531 174.963 102.027 173.044C101.354 172.196 101.354 172.196 100.667 171.331C96.8206 166.467 93.0931 161.525 89.429 156.529C88.6396 155.463 87.8499 154.398 87.0598 153.333C86.2415 152.226 85.4234 151.119 84.6055 150.012C84.2233 149.496 83.8411 148.981 83.4473 148.45C77.6257 140.537 77.6257 140.537 77.6257 137.971C77.0265 137.971 76.4272 137.971 75.8098 137.971C75.0175 136.732 74.2927 135.452 73.5967 134.16C71.3067 130.294 68.6479 127.198 65.3684 124.108C64.9331 123.697 64.4978 123.286 64.0493 122.863C62.8248 121.712 61.5998 120.563 60.3748 119.413C57.2733 116.345 54.998 113.838 53.6787 109.692C51.4314 103.143 44.5339 99.3659 38.6869 96.0115C35.7456 94.6142 32.7923 93.5604 29.7112 92.4997C22.913 90.1485 18.075 88.3542 13.9774 82.224C13.1616 80.5291 13.1616 80.5291 13.1616 78.7617C12.5624 78.7617 11.9632 78.7617 11.3457 78.7617C10.8963 76.5744 10.8963 76.5744 10.4378 74.343C13.0894 73.4828 15.7412 72.6241 18.3965 71.7747C20.1394 71.2011 21.8746 70.6027 23.5888 69.9521C28.5558 68.1006 32.5213 67.5173 37.6761 69.0407C40.4176 70.2706 43.0914 71.5702 45.7641 72.9327C52.4479 76.3307 59.1328 78.0805 66.7304 76.9942C69.5432 75.0577 70.1838 73.9802 71.2701 70.8082C71.3443 69.3057 71.3677 67.8005 71.3588 66.2964C71.3558 65.4277 71.3529 64.5591 71.3499 63.6642C71.3423 62.7591 71.3347 61.854 71.3268 60.9215C71.3227 60.0062 71.3186 59.0909 71.3144 58.1478C71.3037 55.8873 71.2888 53.6268 71.2701 51.3663C72.279 51.3435 73.2879 51.3207 74.3273 51.2973C86.0884 50.9145 94.0704 48.1542 104.12 42.2907C108.152 39.9535 108.152 39.9535 110.461 39.4464C112.9 38.7847 114.014 37.2207 115.759 35.4593C117.616 34.1173 119.476 32.8163 121.377 31.5378C125.205 28.9402 128.952 26.2815 132.61 23.4601C133.299 22.9308 133.989 22.4016 134.7 21.8564C136.055 20.811 137.403 19.7568 138.742 18.693C139.362 18.2168 139.983 17.7405 140.621 17.2498C141.168 16.8202 141.715 16.3905 142.278 15.9478C143.906 15.1337 143.906 15.1337 145.831 15.3607Z" fill="#040404"/>
<path d="M209.756 141.42C211.289 141.435 211.289 141.435 212.853 141.451C213.891 141.459 214.929 141.467 215.999 141.475C216.777 141.485 217.555 141.495 218.357 141.506C219.759 145.802 220.446 149.597 220.652 154.133C220.716 155.342 220.78 156.55 220.845 157.758C220.937 159.635 221.025 161.512 221.107 163.389C221.191 165.22 221.289 167.05 221.389 168.88C221.44 169.966 221.49 171.051 221.542 172.169C222.016 175.267 223.019 176.894 224.713 179.506C224.713 180.672 224.713 181.839 224.713 183.041C226.061 183.478 226.061 183.478 227.437 183.924C228.705 185.653 229.922 187.419 231.068 189.227C230.538 189.792 230.538 189.792 229.997 190.369C226.434 194.245 223.09 198.252 219.833 202.372C219.432 202.877 219.032 203.382 218.62 203.902C216.484 206.609 216.484 206.609 214.725 209.552C210.142 209.072 205.994 208.332 201.56 207.067C189.357 203.819 176.422 202.98 163.88 201.599C164.892 198.431 165.922 195.637 167.778 192.851C168.194 192.22 168.609 191.589 169.037 190.939C169.715 189.927 169.715 189.927 170.406 188.895C171.393 187.399 172.379 185.902 173.364 184.404C173.888 183.612 174.411 182.819 174.95 182.003C177.82 177.638 180.637 173.241 183.458 168.846C184.033 167.956 184.609 167.067 185.202 166.15C187.907 161.956 190.559 157.749 193.073 153.443C193.513 152.701 193.953 151.96 194.406 151.196C195.216 149.822 196.009 148.439 196.781 147.044C198.711 143.797 199.438 142.602 203.266 141.533C205.43 141.515 207.593 141.478 209.756 141.42Z" fill="#060606"/>
<path d="M155.709 60.3139C161.051 63.701 163.95 67.4271 165.696 73.4593C166.457 79.1345 166.595 84.3582 163.483 89.3663C159.698 94.0292 155.485 96.9138 149.353 97.6442C143.676 97.7686 137.724 97.8368 133.127 94.2129C127.927 89.3726 125.093 85.1245 124.612 78.0988C124.733 72.3422 126.49 68.0864 130.57 63.9041C137.644 57.6604 146.918 55.871 155.709 60.3139Z" fill="#050505"/>
<path d="M78.5336 160.064C79.1329 160.064 79.7321 160.064 80.3495 160.064C81.9134 162.005 83.3818 163.955 84.8325 165.974C88.7176 171.285 92.802 176.311 97.2793 181.162C100.324 184.531 100.324 184.531 100.324 187.459C99.0591 188.511 97.7859 189.554 96.4762 190.552C94.7681 191.968 93.377 193.473 91.9258 195.137C88.5955 198.952 84.9727 202.433 81.2929 205.928C79.4041 207.636 79.4041 207.636 78.5336 209.552C73.9182 209.416 71.8534 206.883 68.869 203.805C68.4629 203.368 68.0567 202.932 67.6383 202.483C68.9365 198.611 70.2523 194.751 71.7241 190.939C71.9347 190.393 72.1454 189.846 72.3625 189.284C73.0176 187.632 73.7246 185.999 74.4372 184.37C76.2583 179.639 76.7545 174.778 77.342 169.785C77.4596 168.847 77.5772 167.91 77.6984 166.944C77.9849 164.651 78.2631 162.358 78.5336 160.064Z" fill="#090909"/>
<path d="M229.252 139.738C229.552 139.738 229.852 139.738 230.16 139.738C232.409 151.426 232.546 163.232 232.884 175.087C229.614 171.871 229.732 168.525 229.696 164.248C229.679 163.547 229.663 162.846 229.646 162.123C229.597 159.89 229.567 157.658 229.536 155.424C229.506 153.908 229.475 152.391 229.442 150.875C229.365 147.163 229.304 143.451 229.252 139.738Z" fill="white"/>
<path d="M71.2701 51.3662C76.3637 51.3662 81.4573 51.3662 86.7052 51.3662C86.7052 51.6578 86.7052 51.9495 86.7052 52.2499C82.2109 52.5416 77.7165 52.8332 73.086 53.1337C73.2358 54.3913 73.3856 55.6489 73.54 56.9447C74.8716 70.5439 74.8716 70.5439 72.1781 74.0668C71.5788 74.4496 70.9796 74.8323 70.3622 75.2267C70.5102 74.5942 70.6581 73.9618 70.8106 73.3101C71.2628 70.848 71.3738 68.6212 71.3588 66.1237C71.3544 64.8293 71.3544 64.8293 71.3499 63.5087C71.3423 62.6185 71.3347 61.7282 71.3269 60.811C71.3207 59.45 71.3207 59.45 71.3145 58.0614C71.3038 55.8297 71.2875 53.5979 71.2701 51.3662Z" fill="#474747"/>
<path d="M78.5337 160.064C79.1329 160.064 79.7322 160.064 80.3496 160.064C81.825 161.831 81.825 161.831 83.0734 163.599C82.7738 164.182 82.4741 164.765 82.1654 165.366C81.8658 165.075 81.5662 164.783 81.2575 164.483C80.059 168.565 78.8605 172.648 77.6257 176.855C76.6563 173.081 76.9815 170.228 77.569 166.471C77.6597 165.855 77.7504 165.238 77.8438 164.603C78.0676 163.089 78.2998 161.577 78.5337 160.064Z" fill="#656565"/>
<path d="M67.6383 166.25C67.9379 166.25 68.2376 166.25 68.5463 166.25C68.8367 172.186 68.0736 176.64 65.8224 182.157C64.4464 178.645 65.3695 175.79 66.2197 172.215C66.4807 171.099 66.7417 169.982 67.0106 168.832C67.2177 167.98 67.4249 167.128 67.6383 166.25Z" fill="#9C9C9C"/>
<path d="M60.3748 51.3662C60.6557 51.9312 60.9365 52.4963 61.226 53.0784C62.0404 54.8446 62.0404 54.8446 63.0986 55.7848C63.1646 57.8643 63.1746 59.9457 63.1553 62.0261C63.1471 63.1664 63.139 64.3067 63.1305 65.4816C63.12 66.3644 63.1094 67.2473 63.0986 68.1569C62.799 68.1569 62.4993 68.1569 62.1906 68.1569C62.1906 64.949 62.1906 61.7411 62.1906 58.436C61.5914 58.436 60.9922 58.436 60.3748 58.436C60.3748 56.103 60.3748 53.7699 60.3748 51.3662Z" fill="#A8A8A8"/>
<path d="M133.918 61.0872C134.517 61.3788 135.117 61.6704 135.734 61.9709C134.89 62.9891 134.037 64.0004 133.181 65.0087C132.47 65.8545 132.47 65.8545 131.744 66.7174C130.286 68.1569 130.286 68.1569 127.563 69.0406C128.974 65.6676 131.227 63.5687 133.918 61.0872Z" fill="black"/>
<path d="M210.186 142.389C206.554 143.568 202.922 144.746 199.29 145.924C199.59 144.758 199.89 143.591 200.198 142.389C203.849 141.775 206.629 141.356 210.186 142.389Z" fill="black"/>
<path d="M74.9019 182.157C75.2015 182.157 75.5011 182.157 75.8098 182.157C76.1451 187.922 76.1451 187.922 74.4479 190.055C73.9985 190.365 73.5491 190.675 73.086 190.994C73.8804 184.145 73.8804 184.145 74.9019 182.157Z" fill="#555555"/>
<path d="M71.7086 73.1426C71.8753 73.1426 72.0124 73.0695 72.1546 72.9861C72.6729 72.6818 73.147 72.3122 73.6826 72.0352C73.9333 71.9056 73.706 72.1812 73.6474 72.2856C73.4318 72.6699 73.1924 73.0403 72.9763 73.4243" stroke="black" stroke-width="3" stroke-linecap="round"/>
<path d="M71.3212 74.8682C71.2494 74.8841 71.1694 75.0064 71.1001 75.0442C71.0573 75.0676 70.6055 75.2445 70.6247 75.1264C70.6316 75.084 70.7877 74.8169 70.8282 74.8877C70.8644 74.9511 70.8975 75.016 70.9338 75.0795" stroke="black" stroke-width="3" stroke-linecap="round"/>
<path d="M72.9764 70.9239C73.091 70.6291 73.2873 70.3554 73.4146 70.063C73.6212 69.5888 73.7777 69.096 73.9722 68.6172C74.1195 68.2547 74.1346 67.8293 74.1346 67.4433C74.1346 67.2866 74.1678 66.9119 74.0525 66.7801C74.0359 66.7611 74.0285 66.8256 74.0251 66.8505C74.0031 67.0081 73.982 67.166 73.9625 67.324C73.9148 67.7085 73.8734 68.0885 73.7394 68.4548C73.7272 68.4882 73.7032 68.5812 73.6886 68.5487C73.6483 68.4594 73.6807 68.1257 73.6807 68.0733C73.6807 67.433 73.689 66.7909 73.5946 66.156C73.5807 66.0619 73.5217 65.8033 73.487 65.8918C73.3898 66.1403 73.4066 66.4701 73.3638 66.7331C73.3192 67.0072 73.2854 67.2828 73.2405 67.5568C73.1527 68.0935 73.0409 68.5975 73.0097 69.1435C72.9922 69.4487 72.8355 69.6994 72.8355 70.0082C72.8355 70.2952 72.8112 70.5775 72.8003 70.8613C72.7957 70.9817 72.7226 71.152 72.6868 71.2682C72.6692 71.3256 72.5849 71.6012 72.6242 71.5225" stroke="black" stroke-width="3" stroke-linecap="round"/>
<path d="M72.6594 58.246C72.7309 59.6745 73.1525 61.0526 73.1525 62.4719C73.1525 62.6687 73.1569 62.8661 73.1525 63.0628C73.1496 63.1864 73.0888 63.3002 73.082 63.4228C73.0735 63.5764 73.0424 63.7486 72.9764 63.8806" stroke="black" stroke-width="3" stroke-linecap="round"/>
<path d="M75.7937 54.4779C75.5416 54.8463 75.3405 55.164 74.9974 55.4678C74.7783 55.6619 74.5986 55.8652 74.4026 56.0782C74.1938 56.3053 73.8417 56.3641 73.5672 56.4774C73.3923 56.5496 73.3669 56.5621 73.3638 56.3443C73.3594 56.0411 73.4892 55.7105 73.4127 55.4131C73.385 55.3055 73.2938 55.2345 73.2659 55.1313C73.2616 55.1154 73.1925 54.876 73.1877 54.8809C73.1521 54.9165 73.1874 55.1808 73.1857 55.2252C73.1775 55.4476 73.1666 55.7054 73.0996 55.9198C73.0756 55.9967 73.016 56.088 73.0116 56.1682C73.0091 56.2127 72.9432 56.4813 72.9236 56.4813C72.89 56.4813 72.8355 56.0274 72.8355 55.9726C72.8355 55.689 72.8003 55.3998 72.8003 55.1118C72.8003 54.7567 72.9059 54.3937 72.9059 54.0357C72.9059 53.841 72.9217 53.6493 72.9431 53.4566C72.9559 53.3413 72.9595 53.1744 73.0038 53.0692C73.0209 53.0285 73.032 52.8008 72.992 52.7894C72.9368 52.7736 72.778 52.717 72.8355 52.717" stroke="black" stroke-width="3" stroke-linecap="round"/>
<path d="M88.4012 51.5901C87.2868 51.9487 86.1036 52.187 84.95 52.3472C84.7688 52.3724 84.5809 52.4001 84.3982 52.4001C84.2143 52.4001 84.0304 52.4001 83.8465 52.4001C83.8131 52.4001 83.7199 52.384 83.69 52.4079C83.6094 52.4724 83.3662 52.4705 83.2576 52.4705C83.1137 52.4705 82.9945 52.4822 82.8546 52.5038C82.6 52.5429 82.3337 52.5409 82.0759 52.5409C81.7612 52.5409 81.4581 52.6818 81.1466 52.6818C80.9999 52.6818 80.9094 52.7208 80.7768 52.7503C80.6362 52.7815 80.4618 52.7522 80.319 52.7522C79.8139 52.7522 79.3165 52.8656 78.8223 52.8931C78.4739 52.9124 78.1652 52.9516 77.8206 53.0261C77.4496 53.1064 77.0067 53.034 76.6232 53.034C76.4426 53.034 76.0979 53.0502 76.3728 52.8931C76.4468 52.8508 76.2619 52.8227 76.2437 52.8227C76.0206 52.8227 75.7975 52.8627 75.5746 52.8853C75.2025 52.9229 74.8596 52.8227 74.4946 52.8227C74.2821 52.8227 74.1111 52.8111 73.892 52.8227C73.7171 52.8319 73.5389 52.8227 73.3638 52.8227" stroke="black" stroke-width="3" stroke-linecap="round"/>
<path d="M72.6946 53.0692C72.7413 53.1198 73.2915 53.5936 72.949 53.4565C72.8535 53.4184 72.7612 53.3534 72.7122 53.2609C72.589 53.0281 72.4718 52.9719 72.6868 52.7092C72.7313 52.6548 72.3856 52.5409 72.3249 52.5409C72.1715 52.5409 72.1761 52.4899 72.2368 52.6113" stroke="black" stroke-width="3" stroke-linecap="round"/>
<path d="M72.3425 54.02C72.373 54.3867 72.3805 54.7355 72.4149 55.0961C72.4528 55.495 72.5357 55.7982 72.4853 56.2015C72.4515 56.4719 72.4129 56.7043 72.4129 56.9782C72.4129 57.1225 72.6609 57.7346 72.4833 57.8234" stroke="black" stroke-width="3" stroke-linecap="round"/>
<path d="M72.7299 60.359C72.8279 60.4203 72.7299 61.2004 72.7299 61.3451C72.7299 61.6777 72.6242 62.0013 72.6242 62.3331C72.6242 62.5848 72.6242 62.8365 72.6242 63.0883C72.6242 63.3262 72.6203 63.5645 72.6242 63.8024C72.6292 64.1052 72.7139 64.399 72.6927 64.7063C72.6759 64.9499 72.6309 65.2578 72.5616 65.4889C72.4454 65.8761 72.502 66.4351 72.5812 66.831C72.6115 66.9825 72.6599 67.1316 72.6927 67.279C72.7469 67.5228 72.683 67.8335 72.6673 68.0753C72.6464 68.3944 72.5933 68.6531 72.5186 68.9518" stroke="black" stroke-width="3" stroke-linecap="round"/>
<path d="M59.3289 51.7886C59.2041 51.8302 59.1992 52.4504 59.2392 52.59C59.2535 52.6401 59.2705 52.6923 59.2747 52.7432C59.2903 52.9298 59.4004 53.0852 59.4403 53.2647" stroke="black" stroke-width="3" stroke-linecap="round"/>
<path d="M60.1923 57.4423C60.2054 57.5346 60.2495 57.6156 60.3145 57.6821C60.3847 57.754 60.554 57.9588 60.6595 57.9699C60.8823 57.9934 61.0921 57.9697 61.2815 57.8446C61.3587 57.7936 61.363 57.6761 61.3929 57.5939C61.4302 57.4915 61.5332 57.4683 61.5554 57.3464C61.5853 57.1818 61.6405 57.0451 61.6405 56.876C61.6405 56.7529 61.6748 56.5427 61.6405 56.4397" stroke="black" stroke-width="3" stroke-linecap="round"/>
<path d="M60.8606 56.6903C60.7605 56.6302 60.6811 56.4171 60.6007 56.3251C60.5317 56.2461 60.4663 56.1874 60.3903 56.1209C60.3195 56.059 60.2879 55.999 60.2541 55.9104C60.195 55.7552 60.3036 55.496 60.3036 55.3395C60.3036 55.1985 60.3176 55.048 60.3021 54.9078C60.2933 54.8292 60.2625 54.7689 60.2417 54.7005C60.2086 54.5911 60.1923 54.4904 60.1644 54.3787" stroke="black" stroke-width="3" stroke-linecap="round"/>
<path d="M60.2758 53.9053C60.1268 53.8425 59.9928 53.8708 59.8735 53.9671C59.8098 54.0187 59.688 54.0673 59.6662 54.1544C59.6552 54.1983 59.6762 54.219 59.6353 54.2395" stroke="black" stroke-width="3" stroke-linecap="round"/>
<path d="M62.0582 67.4406C61.9305 67.4123 61.8911 66.9443 61.8911 66.831C61.8911 66.5206 61.8226 66.2205 61.8091 65.9104C61.7865 65.391 61.6268 64.888 61.6142 64.3632C61.6035 63.9215 61.5569 63.4804 61.5569 63.0387C61.5569 62.5628 61.5478 62.0463 61.7101 61.592C61.7953 61.3533 61.721 61.0996 61.6977 60.8555C61.644 60.2921 61.5291 59.7407 61.5291 59.169C61.5291 58.9197 61.5647 58.7478 61.6621 58.5285C61.7171 58.4047 61.6405 58.2344 61.6405 58.1107" stroke="black" stroke-width="3" stroke-linecap="round"/>
<path d="M58.5212 68.4432C58.6811 68.5021 58.824 68.6179 58.973 68.7001C59.096 68.7679 59.2248 68.802 59.3537 68.8548C59.4075 68.8769 59.4678 68.9167 59.5239 68.9167" stroke="white" stroke-width="3" stroke-linecap="round"/>
<path d="M60.9164 69.3344C61.2164 69.3344 61.514 69.3743 61.8076 69.4242C61.9857 69.4544 62.1524 69.4586 62.3244 69.3963C62.4536 69.3495 62.5601 69.2755 62.6926 69.2447C62.9452 69.1859 62.948 68.9904 63.0887 68.8331C63.2073 68.7006 63.0084 68.7866 62.9371 68.7991C62.7306 68.8353 62.5237 68.8331 62.3151 68.8331C62.1583 68.8331 62.0417 68.8785 61.8911 68.9167C61.7789 68.9452 61.6872 68.941 61.5848 68.9878C61.5461 69.0055 61.4199 68.9812 61.4579 69.0002C61.5585 69.0505 61.696 69.0795 61.8076 69.0838C62.0356 69.0925 62.2372 69.0451 62.4265 68.9167C62.4791 68.881 62.5292 68.8419 62.5812 68.8053C62.6072 68.787 62.6811 68.772 62.6586 68.7496C62.623 68.714 62.3902 68.7825 62.3584 68.7898C62.1567 68.8358 61.9543 68.9091 61.7457 68.9167C61.5233 68.9248 60.9442 68.88 60.9442 69.223" stroke="white" stroke-width="3" stroke-linecap="round"/>
<path d="M74.3791 191.275C74.4207 190.735 74.7989 190.233 74.9679 189.726C75.0399 189.51 75.0369 189.254 75.0916 189.029C75.1557 188.765 75.1752 188.458 75.339 188.232C75.4113 188.132 75.452 188.109 75.3737 188.252C75.0709 188.803 74.7637 189.352 74.3989 189.865C74.3938 189.872 74.089 190.302 74.0773 190.285C73.9845 190.153 74.4054 189.632 74.4237 189.449C74.4429 189.257 74.5348 189.057 74.6117 188.88C74.7832 188.486 75.0661 188.178 75.2697 187.802C75.5086 187.36 75.8486 186.99 75.8486 186.466C75.8486 186.317 75.8932 186.186 75.8932 186.03C75.8932 185.858 75.8172 186.152 75.7942 186.198C75.7205 186.348 75.639 186.502 75.5369 186.634C75.3116 186.925 74.929 187.07 74.7453 187.401C74.6815 187.516 74.7292 187.648 74.681 187.757C74.6275 187.877 74.7259 187.846 74.8244 187.846" stroke="black" stroke-width="3" stroke-linecap="round"/>
<path d="M78.5204 177.782C78.8043 176.63 78.5508 175.397 78.6293 174.225C78.6561 173.825 78.7849 173.694 78.9905 173.384C79.1585 173.13 79.3795 172.806 79.3022 172.488C79.1979 172.059 79.1525 171.646 79.322 171.226C79.5273 170.719 79.7024 170.164 79.9454 169.678" stroke="black" stroke-width="3" stroke-linecap="round"/>
<path d="M81.2814 165.625C81.2814 164.627 81.2853 163.629 80.8361 162.731" stroke="black" stroke-width="3" stroke-linecap="round"/>
<path d="M79.4556 160.95H79.5447" stroke="black" stroke-width="3" stroke-linecap="round"/>
<path d="M79.3666 162.018C79.2761 162.131 79.2876 162.331 79.275 162.469C79.2532 162.708 79.1516 162.939 79.1093 163.176C79.0264 163.64 78.9658 164.128 78.9658 164.599C78.9658 165.236 78.9854 165.845 78.8569 166.469C78.6304 167.569 78.328 168.644 78.1197 169.747C77.9968 170.398 78.1197 171.05 78.1197 171.704C78.1197 171.837 78.0647 172.003 78.0109 172.122C77.881 172.409 77.8572 172.741 77.7189 173.017" stroke="black" stroke-width="3" stroke-linecap="round"/>
<path d="M81.9938 164.779C81.9938 165.093 81.8364 165.39 81.7341 165.68C81.6492 165.92 81.6007 166.159 81.546 166.405C81.4351 166.904 81.1143 167.42 80.7915 167.807" stroke="black" stroke-width="3" stroke-linecap="round"/>
<path d="M82.5727 164.2C82.5677 164.246 82.5424 164.291 82.5282 164.334" stroke="black" stroke-width="3" stroke-linecap="round"/>
<path d="M68.5011 166.65C68.4469 167.626 68.1053 168.553 68.1053 169.542C68.1053 170.039 68.1205 170.545 68.1795 171.038C68.1959 171.176 68.1809 171.305 68.1622 171.442C68.0707 172.112 68.0344 172.781 67.9865 173.455C67.9443 174.051 67.7876 174.531 67.6328 175.091C67.5501 175.389 67.5084 175.693 67.4472 175.996C67.3221 176.616 67.1324 177.218 67.0217 177.842C66.8943 178.56 66.7528 179.186 66.4527 179.841C66.2456 180.292 66.015 180.779 65.953 181.275C65.9324 181.44 65.9208 181.608 65.8837 181.77C65.8545 181.898 65.8544 181.428 65.854 181.424C65.7912 180.686 65.6385 179.649 66.0371 178.955C66.2211 178.635 66.4057 178.314 66.564 177.98C66.699 177.695 66.6937 177.37 66.7867 177.072C66.8933 176.731 66.9956 176.389 67.0959 176.046C67.1594 175.828 67.29 175.649 67.3878 175.442C67.5101 175.184 67.5919 174.949 67.6649 174.67C67.7914 174.187 68.009 173.737 68.0781 173.24C68.1175 172.956 68.0988 172.669 68.135 172.384C68.1411 172.336 68.1754 171.82 68.1201 171.82C67.9985 171.82 67.906 172.049 67.9247 172.152C67.9903 172.513 68.0085 172.886 68.0113 173.255C68.0164 173.938 68.05 174.617 67.9865 175.298C67.898 176.248 67.7794 177.218 67.5214 178.139C67.3179 178.864 67.0489 179.569 66.8386 180.291C66.6167 181.053 66.558 181.856 66.3241 182.616C66.2665 182.803 66.1766 182.991 66.1855 182.626C66.2219 181.14 66.4728 179.628 67.0662 178.265C67.4428 177.399 67.76 176.518 68.0261 175.613C68.1929 175.045 68.3819 174.468 68.412 173.873C68.4544 173.038 68.5549 172.206 68.6001 171.37C68.6555 170.344 68.5973 169.314 68.6792 168.29C68.698 168.055 68.9209 167.876 68.981 167.649C69.0414 167.421 69.1119 167.19 69.1691 166.961" stroke="white" stroke-width="3" stroke-linecap="round"/>
<path d="M67.3434 165.314C67.0456 165.718 66.7645 166.18 66.7645 166.694" stroke="black" stroke-width="3" stroke-linecap="round"/>
<path d="M65.0278 173.953C65.2491 173.953 65.2764 173.057 65.3395 172.829C65.4304 172.501 65.5072 172.221 65.5201 171.879C65.526 171.723 65.5975 171.504 65.5621 171.35C65.5499 171.297 65.5349 171.455 65.5225 171.508C65.4507 171.818 65.3741 172.126 65.2949 172.434C65.1566 172.972 65.0196 173.497 64.9288 174.042C64.8578 174.468 64.6193 174.85 64.4588 175.244C64.2961 175.644 64.1814 176.005 63.964 176.38C63.8137 176.638 63.6129 176.937 63.5385 177.228C63.4468 177.586 63.4014 177.961 63.3455 178.326C63.2895 178.693 63.0931 179.039 63.0041 179.403C62.9565 179.597 62.938 179.795 62.8903 179.989C62.8477 180.162 62.7145 180.58 62.8903 180.177C63.0159 179.889 63.1464 179.602 63.2911 179.323C63.3979 179.117 63.5661 178.956 63.6671 178.745C63.7649 178.54 63.819 178.132 63.6473 177.96" stroke="black" stroke-width="3" stroke-linecap="round"/>
<path d="M63.5582 177.649C63.597 177.435 63.815 177.24 63.9021 177.04C63.9449 176.942 63.946 176.844 64.0035 176.758" stroke="black" stroke-width="3" stroke-linecap="round"/>
<path d="M65.384 168.075C65.32 168.426 65.2949 168.747 65.2949 169.111C65.2949 169.334 65.3638 169.54 65.3295 169.767C65.307 169.916 65.1887 170.301 65.3196 169.908C65.4456 169.53 65.4593 169.079 65.6165 168.718C65.6765 168.58 65.7495 168.422 65.7823 168.275C65.8362 168.032 65.7854 168.738 65.7847 168.812C65.7804 169.334 65.7206 169.893 65.5448 170.385C65.453 170.642 65.6664 169.853 65.7105 169.584C65.7638 169.259 65.7793 168.955 65.7847 168.629C65.7857 168.573 65.8602 167.778 65.9827 167.988C66.0444 168.094 65.9444 168.296 65.9183 168.396C65.8436 168.684 65.7997 168.984 65.7056 169.267C65.6316 169.489 65.5527 169.692 65.4928 169.923C65.4314 170.159 65.3618 170.389 65.3295 170.633C65.3205 170.701 65.2072 171.05 65.2726 171.103C65.3347 171.152 65.6941 171.148 65.6066 171.192" stroke="black" stroke-width="3" stroke-linecap="round"/>
<path d="M75.9377 186.466C75.9715 185.586 76.3144 184.786 76.4621 183.932C76.4936 183.751 76.5512 183.527 76.5611 183.349C76.5692 183.202 76.3191 183.273 76.2692 183.358C76.0177 183.79 76.2468 184.343 76.0663 184.781C75.8884 185.213 75.6882 185.722 75.3835 186.085C75.1989 186.305 75.1273 186.596 74.958 186.822" stroke="black" stroke-width="3" stroke-linecap="round"/>
<path d="M74.3346 182.102C74.3139 182.268 73.98 182.461 73.8646 182.577C73.7824 182.659 73.7329 182.771 73.6567 182.859C73.5657 182.964 73.4286 183.017 73.3426 183.123C73.2362 183.254 73.2117 183.413 73.157 183.569C73.0634 183.836 73.0013 184.148 72.9443 184.427C72.904 184.624 72.8297 184.759 72.687 184.907C72.6243 184.972 72.5089 185.185 72.5089 185.041" stroke="white" stroke-width="3" stroke-linecap="round"/>
<path d="M75.5369 185.441C75.2921 185.931 75.0722 186.333 74.5523 186.535C74.5118 186.551 74.2604 186.654 74.2604 186.557C74.2604 186.236 74.585 185.866 74.7156 185.585C74.9171 185.151 75.0608 184.678 75.2252 184.229C75.404 183.741 75.622 183.25 75.8684 182.792C75.9833 182.579 75.8909 182.282 75.9624 182.057C76.0377 181.821 76.1634 181.625 76.2024 181.372C76.2352 181.159 75.9237 181.297 75.8313 181.369C75.6242 181.53 75.7152 181.971 75.6359 182.201C75.4711 182.677 75.1807 183.168 75.1807 183.682C75.1807 183.827 75.049 183.996 75.0025 184.13C74.9426 184.303 74.8916 184.478 74.8343 184.65C74.726 184.975 74.6217 185.289 74.5028 185.61C74.4121 185.854 74.3466 186.296 74.1342 186.466C73.9837 186.586 73.8893 186.641 73.8893 186.847C73.8893 187.18 73.8408 187.476 73.7458 187.802C73.5698 188.404 73.4696 189.01 73.3104 189.612C73.3002 189.651 73.1289 190.187 73.1422 190.196C73.1778 190.222 73.3586 190.185 73.3772 190.184C73.6554 190.161 73.937 190.153 74.2158 190.169C75.1771 190.226 76.3526 190.439 76.8209 191.408C76.8832 191.538 76.9783 192.283 77.2686 192.052C77.4749 191.888 77.601 191.624 77.709 191.394C78.0019 190.768 78.3317 190.036 78.3745 189.338C78.4026 188.878 78.2458 188.447 77.9861 188.074C77.8495 187.877 77.5575 187.55 77.2785 187.554C76.8415 187.56 76.278 191.581 78.7208 190.226C79.2622 189.926 79.7869 189.495 80.1384 188.979C80.4201 188.566 80.2215 188.336 79.8415 188.128C79.613 188.003 79.2384 187.843 79.1068 188.173C79.04 188.339 79.2987 188.741 79.3591 188.863C79.9537 190.063 81.0698 191.183 82.2461 191.809C82.4945 191.941 82.9451 192.179 83.1887 191.898C83.6592 191.355 83.8048 190.283 83.7107 189.61C83.5825 188.693 83.0923 187.852 82.5529 187.119C82.5148 187.067 81.8105 186.034 81.5534 186.377C81.3033 186.71 81.2125 187.32 81.1527 187.705C81.0124 188.609 81.0678 189.515 81.5955 190.293C81.9191 190.77 82.3004 190.987 82.8844 190.844C83.8393 190.612 84.8928 189.967 85.5513 189.241C85.7941 188.974 86.0808 188.543 85.8976 188.165C85.6594 187.674 84.8769 187.663 84.4257 187.678C83.8099 187.698 83.2356 187.851 82.7954 188.291" stroke="black" stroke-linecap="round"/>
<path d="M76.5683 173.83C76.5683 173.417 76.5126 173.01 76.5126 172.598C76.5126 172.257 76.5962 171.926 76.5962 171.589C76.5962 171.326 76.5903 171.063 76.5962 170.8C76.5993 170.661 76.6263 170.526 76.624 170.382C76.6231 170.322 76.6265 170.127 76.5683 170.098" stroke="white" stroke-linecap="round"/>
<path d="M69.56 163.988C69.5135 164.202 69.3229 164.384 69.24 164.587C69.2139 164.651 69.2014 164.717 69.1651 164.779C69.084 164.919 69.0976 165.121 69.0438 165.276C68.9692 165.492 68.8948 165.723 68.8619 165.949C68.8048 166.339 68.5957 166.717 68.4799 167.091C68.4385 167.224 68.4024 167.361 68.3521 167.491C68.3244 167.563 68.2778 167.605 68.2489 167.679C68.2292 167.73 68.2473 167.757 68.1998 167.788C68.1665 167.809 68.131 167.83 68.1069 167.862C68.0825 167.895 68.1293 167.601 68.1353 167.571C68.1827 167.333 68.2573 167.104 68.2953 166.865C68.3215 166.7 68.3503 166.534 68.3805 166.371C68.4203 166.156 68.5243 165.949 68.5728 165.733C68.613 165.555 68.6105 165.368 68.6541 165.191C68.6904 165.044 68.6911 164.884 68.7019 164.733C68.7085 164.64 68.7425 164.544 68.747 164.453C68.7486 164.421 68.804 164.203 68.7367 164.222C68.6364 164.251 68.5823 164.649 68.5496 164.729C68.3122 165.309 68.4536 166 68.2824 166.599C68.1973 166.897 68.1411 167.193 68.0914 167.496C68.0674 167.643 68.0283 167.788 68.0037 167.936C68.0002 167.957 67.9736 168.06 67.9856 167.971C68.0282 167.655 68.1295 167.348 68.2153 167.042C68.3526 166.552 68.2869 166.019 68.3625 165.516C68.4137 165.176 68.4915 164.822 68.4915 164.476" stroke="#FFFAFA" stroke-linecap="square"/>
<path d="M67.9805 170.307C67.871 170.696 67.9002 171.105 67.6888 171.458C67.6019 171.603 67.4885 171.783 67.4462 171.947C67.4178 172.057 67.3672 172.16 67.3404 172.271C67.3238 172.339 67.3436 172.413 67.3185 172.479C67.2998 172.527 67.3102 172.579 67.3056 172.63C67.2951 172.745 67.239 172.864 67.2088 172.975C67.1439 173.215 67.0459 173.454 67.0281 173.703C67.0225 173.781 66.9871 173.852 66.9829 173.932C66.9781 174.023 66.9977 174.124 66.9584 174.209C66.8911 174.356 66.764 174.483 66.6797 174.622C66.656 174.661 66.5661 174.85 66.5661 174.737C66.5661 174.433 66.7652 174.155 66.8087 173.857C66.8392 173.648 66.9386 173.46 66.9997 173.259C67.0495 173.095 67.0965 172.929 67.1313 172.761C67.1986 172.437 67.3134 172.117 67.3314 171.784C67.3426 171.576 67.4173 171.366 67.4694 171.166C67.4806 171.123 67.5536 170.813 67.534 171.006C67.47 171.633 67.3204 172.287 67.121 172.885" stroke="#FFFAFA" stroke-linecap="square"/>
<path d="M66.819 174.325C66.819 174.653 66.724 174.912 66.6216 175.22C66.572 175.368 66.523 175.477 66.4332 175.608C66.3323 175.756 66.2288 175.894 66.1867 176.067C66.1361 176.276 65.9522 176.439 65.8409 176.615C65.7171 176.81 65.6099 177.019 65.5311 177.237C65.5026 177.315 65.5017 177.399 65.4692 177.475C65.3725 177.703 65.2627 177.889 65.2627 178.142C65.2627 178.596 65.0601 179.026 64.8962 179.436C64.7976 179.682 64.7176 179.936 64.6355 180.188C64.6284 180.21 64.6023 180.327 64.5762 180.341C64.5525 180.355 64.5438 180.372 64.5323 180.397C64.5083 180.448 64.498 180.284 64.4962 180.272" stroke="#FFFAFA" stroke-linecap="square"/>
<path d="M66.308 176.671C66.3419 176.4 66.4628 176.146 66.4887 175.874C66.5048 175.703 66.4846 175.532 66.5054 175.362C66.5162 175.274 66.5102 175.186 66.5196 175.098C66.5437 174.875 66.6556 174.653 66.7261 174.441" stroke="#FFFAFA" stroke-linecap="square"/>
<path d="M114.106 111.653C113.962 111.39 113.815 111.129 113.685 110.859C113.648 110.781 113.631 110.763 113.672 110.672C113.738 110.529 113.853 110.444 113.96 110.337" stroke="#FFFAFA" stroke-linecap="square"/>
<path d="M113.345 113.145C113.276 112.711 113.362 112.287 113.404 111.855C113.421 111.683 113.59 111.504 113.757 111.454C114.006 111.379 114.178 112.168 114.229 112.326C114.314 112.588 114.466 112.128 114.506 112.037C114.598 111.823 114.635 111.587 114.727 111.374C114.768 111.278 114.869 111.213 114.896 111.111C114.93 110.981 114.929 110.947 115.011 110.851C115.04 110.817 115.157 110.797 115.203 110.807C115.273 110.822 115.191 110.828 115.156 110.817C115.074 110.79 114.999 110.743 114.923 110.701C114.618 110.533 114.511 110.144 114.369 109.843C114.304 109.705 114.274 109.556 114.223 109.414C114.174 109.281 114.057 109.187 113.991 109.066C113.931 108.957 113.922 108.584 113.761 108.566C113.73 108.562 113.911 108.689 113.924 108.699C114.047 108.795 114.136 109.077 114.194 109.219C114.454 109.863 114.732 110.492 115.087 111.091C115.145 111.188 115.247 111.348 115.247 111.151C115.247 110.971 115.219 110.868 115.143 110.714C115.092 110.612 115.009 110.534 114.954 110.438C114.877 110.303 114.731 110.243 114.636 110.121C114.579 110.049 114.532 109.966 114.45 109.921C114.331 109.855 114.299 109.67 114.246 109.554C114.22 109.499 114.146 109.471 114.09 109.463C113.916 109.439 113.852 109.615 113.784 109.744C113.6 110.097 113.527 110.524 113.459 110.912C113.439 111.03 113.376 111.31 113.488 111.27C113.598 111.231 113.675 111.064 113.714 110.969C113.742 110.903 113.86 110.594 113.683 110.766C113.515 110.93 113.234 111.322 113.644 111.387C113.852 111.42 114.064 111.279 114.129 111.081C114.155 111 114.073 111.159 114.073 111.208C114.073 111.608 114.711 110.857 114.837 110.87C114.907 110.878 114.987 111.05 115.019 111.098C115.08 111.188 115.171 111.256 115.247 111.332" stroke="black" stroke-linecap="square"/>
<path d="M12.5232 78.7091C12.518 78.2561 12.447 77.8552 12.3417 77.4176C12.2938 77.2185 12.2475 77.029 12.2328 76.8216C12.2022 76.3884 12.2137 75.9526 12.2137 75.5187C12.2137 75.3159 12.2145 75.1284 12.2748 74.9341C12.3204 74.7872 12.3657 74.6186 12.4353 74.4794C12.4573 74.4353 12.5129 74.1846 12.5041 74.1909C12.3305 74.3149 12.3856 74.876 12.3856 75.0793C12.3856 75.3658 12.3415 75.6931 12.4028 75.9753C12.4313 76.1062 12.4085 76.2389 12.4277 76.3707C12.4426 76.4737 12.4858 76.5764 12.4888 76.6802C12.4953 76.9071 12.5232 77.1298 12.5232 77.3603C12.5232 77.7868 12.4544 78.2042 12.4544 78.6327C12.4544 78.7286 12.4776 78.7639 12.5232 78.8485C12.611 79.0116 12.592 79.0059 12.592 78.8161C12.592 78.6371 12.592 78.4582 12.592 78.2792C12.592 77.795 12.7107 77.2485 12.5576 76.7738C12.4245 76.3612 12.42 75.9339 12.42 75.5034C12.42 75.412 12.5573 74.4131 12.4735 74.4106C12.2152 74.403 11.8236 74.3869 11.6024 74.531C11.1709 74.8119 11.0222 75.5254 10.9165 75.9905C10.8406 76.3244 11.0987 75.3267 11.1286 74.9857C11.1506 74.7345 11.1536 74.7181 11.0178 74.9341C10.9234 75.0841 10.834 75.2713 10.7159 75.404C10.6388 75.4908 10.725 75.172 10.735 75.0563C10.7385 75.0164 10.7925 74.7096 10.7484 74.6743C10.6846 74.6232 10.7226 74.8357 10.714 74.9169C10.687 75.1729 10.6846 75.2259 10.6491 75.4843C10.6309 75.6162 10.5631 76.0098 10.5917 75.8797C10.6833 75.4643 10.7564 75.0437 10.8286 74.6246C10.8308 74.6119 10.8671 74.1384 10.9146 74.0935C10.9609 74.0498 10.9613 74.2121 10.9796 74.2731C10.9955 74.3262 11.1216 74.7627 11.1324 74.7965C11.2235 75.0816 11.2891 75.3012 11.5259 74.9761C11.7302 74.6957 11.9319 74.3777 12.0723 74.0591C12.2128 73.7403 11.2676 74.0858 11.163 74.1317C11.1118 74.1541 10.9665 74.2376 11.0139 74.2081C11.0497 74.1859 11.316 73.9595 11.3425 73.9865C11.4793 74.1258 11.3816 75.1498 11.3808 75.1939C11.3632 76.074 11.297 76.9495 11.2604 77.8284C11.2518 78.0336 11.2838 78.1458 11.3387 77.8819C11.423 77.4766 11.4338 77.0583 11.4381 76.6458C11.4456 75.9178 11.5117 78.1002 11.545 78.8275C11.5475 78.8815 11.5621 79.583 11.5603 79.0339C11.5584 78.4518 11.556 77.8691 11.5259 77.2877C11.5222 77.215 11.5169 77.1424 11.5107 77.0699C11.504 76.9931 11.5001 76.9275 11.4896 77.0336C11.4477 77.4598 11.436 77.8915 11.4266 78.3194C11.4241 78.4334 11.4764 79.0806 11.3655 78.5161C11.2026 77.6876 11.0158 76.8619 10.7637 76.0555C10.6732 75.7663 10.4064 74.9351 10.3701 75.2359C10.3067 75.7621 10.4062 76.3442 10.458 76.8674C10.4698 76.9865 10.5237 77.7892 10.5459 77.1158C10.5595 76.7018 10.5589 76.2867 10.5975 75.874C10.6043 75.8008 10.6304 75.5827 10.6319 75.6562C10.6447 76.3001 10.6311 76.9457 10.6319 77.5896C10.632 77.6858 10.633 78.774 10.6395 78.9536C10.6426 79.0393 10.6333 79.1297 10.6643 79.2096C10.6733 79.2327 10.7101 79.1828 10.7197 79.1599C10.984 78.5308 11.1369 77.8336 11.3616 77.1884C11.5026 76.7837 11.6466 76.3798 11.7934 75.9772C11.8249 75.8909 11.8208 75.8423 11.8488 75.9371C11.8938 76.0895 11.9601 76.3906 11.9844 76.5064C12.1225 77.1619 12.2228 77.8214 12.3073 78.4856C12.3385 78.7303 12.3492 78.5704 12.3436 78.4779C12.3101 77.9247 12.0661 77.3507 12.2061 76.791C12.2713 76.5299 12.2785 76.2263 12.3169 75.9581" stroke="white" stroke-linecap="square"/>
<path d="M75.8104 136.314C75.8322 136.452 76.0271 136.58 76.1293 136.662" stroke="black" stroke-linecap="square"/>
<path d="M76.8832 137.154C77.0446 137.632 77.1954 138.133 77.5276 138.522C77.5775 138.58 77.6237 138.667 77.6951 138.702C77.7437 138.727 77.7839 138.717 77.8143 138.767C77.919 138.937 77.9494 139.122 78.0205 139.307C78.0663 139.426 78.1383 139.541 78.1816 139.671C78.1981 139.72 78.2109 139.77 78.2299 139.819C78.2709 139.924 78.1727 139.569 78.1703 139.561C78.1101 139.352 78.0066 139.159 77.9416 138.951C77.8911 138.789 77.7689 138.612 77.6677 138.475C77.4912 138.238 77.3583 137.981 77.1458 137.768C77.0781 137.7 77.017 137.647 76.9638 137.567C76.8933 137.461 76.8433 137.555 76.7898 137.631C76.6418 137.842 76.5537 137.961 76.7608 138.14C76.8766 138.24 76.9504 138.367 77.0717 138.462C77.1711 138.54 77.191 138.651 77.2747 138.735C77.4287 138.889 77.6002 139.017 77.7305 139.197C77.7973 139.289 77.8517 139.404 77.9013 139.506C77.9034 139.511 77.9336 139.64 77.9496 139.635C77.9767 139.627 77.8757 139.289 77.8691 139.242" stroke="black" stroke-linecap="square"/>
<path d="M76.3323 137.473C76.3289 137.447 76.3229 137.454 76.3033 137.444" stroke="black" stroke-linecap="square"/>
<path d="M77.6791 136.865C77.6791 136.936 77.6792 137.007 77.6781 137.078C77.6767 137.163 77.7096 137.408 77.6334 137.475C77.5891 137.513 77.494 137.496 77.4393 137.506C77.3939 137.515 77.3475 137.546 77.3052 137.563C77.1505 137.627 76.9339 137.664 76.7972 137.769C76.7299 137.821 76.6241 137.944 76.5392 137.959C76.4955 137.967 76.3422 137.691 76.5351 137.997C76.5705 138.053 76.6139 138.133 76.6692 138.174C76.6879 138.187 76.7251 138.192 76.7282 138.218C76.7361 138.286 76.8398 138.306 76.8755 138.358C76.9859 138.516 77.1371 138.684 77.1853 138.877" stroke="black" stroke-linecap="square"/>
<path d="M77.5328 139.316C77.5328 139.248 77.594 139.22 77.6323 139.171C77.6768 139.115 77.5663 139.014 77.5328 138.968" stroke="black" stroke-linecap="square"/>
</svg>
